<svg width="22" height="22" viewBox="0 0 22 22" fill="none" xmlns="http://www.w3.org/2000/svg">
<path d="M21.3125 6.22032V4.77932H19.6267V1.80451C19.6241 1.52001 19.5087 1.24816 19.3059 1.04864C19.1031 0.849118 18.8293 0.738213 18.5448 0.740262H3.45516C3.17064 0.738213 2.89694 0.849118 2.69411 1.04864C2.49127 1.24816 2.37588 1.52001 2.37325 1.80451V20.2811C2.37588 20.5656 2.49127 20.8374 2.69411 21.0369C2.89694 21.2365 3.17064 21.3474 3.45516 21.3453H18.5448C18.8293 21.3474 19.1031 21.2365 19.3059 21.0369C19.5087 20.8374 19.6241 20.5656 19.6267 20.2811V17.2203H21.3125V15.7793H19.6267V11.7203H21.3125V10.2793H19.6267V6.22032H21.3125ZM18.1857 10.2793H16.1562V11.7203H18.1857V15.7793H16.1562V17.2203H18.1857V19.9043H3.81425V2.18126H18.1857V4.77932H16.1562V6.22032H18.1857V10.2793Z" fill="#11294C"/>
<path d="M13.4767 13.1882L12.2415 12.3853L12.8354 10.9392V8.6674C12.8354 7.91852 12.5379 7.20031 12.0083 6.67078C11.4788 6.14124 10.7606 5.84375 10.0117 5.84375C9.26284 5.84375 8.54464 6.14124 8.0151 6.67078C7.48556 7.20031 7.18807 7.91852 7.18807 8.6674V10.9257L7.73468 12.416L6.54677 13.1882C6.25134 13.3794 6.00859 13.6417 5.84073 13.951C5.67288 14.2603 5.58527 14.6068 5.58594 14.9587V17.1875H14.4375V14.9587C14.4382 14.6068 14.3506 14.2603 14.1827 13.951C14.0149 13.6417 13.7721 13.3794 13.4767 13.1882ZM13.0625 15.8125H6.96094V14.9587C6.96071 14.8359 6.99127 14.7151 7.04982 14.6072C7.10838 14.4993 7.19305 14.4078 7.2961 14.3411L9.40298 12.9716L8.56307 10.6813V8.6674C8.56307 8.28319 8.7157 7.91472 8.98737 7.64305C9.25905 7.37138 9.62752 7.21875 10.0117 7.21875C10.3959 7.21875 10.7644 7.37138 11.0361 7.64305C11.3077 7.91472 11.4604 8.28319 11.4604 8.6674V10.6679L10.5365 12.9172L12.7273 14.3411C12.8304 14.4078 12.9151 14.4993 12.9736 14.6072C13.0322 14.7151 13.0627 14.8359 13.0625 14.9587V15.8125Z" fill="#11294C"/>
</svg>
