<svg width="22" height="22" viewBox="0 0 24 24" fill="none" xmlns="http://www.w3.org/2000/svg">
<g clip-path="url(#clip0_771_7376)">
<path d="M12.5 12.5C11.2661 11.4459 9.77508 11 8 11C4.13401 11 1 13.0294 1 18V23H11M18.0003 20.9998C16.3453 20.9998 15.0003 19.6538 15.0003 17.9998C15.0003 16.3458 16.3453 14.9998 18.0003 14.9998C19.6543 14.9998 21.0003 16.3458 21.0003 17.9998C21.0003 19.6538 19.6543 20.9998 18.0003 20.9998ZM24.0003 17.9998H21.0003H24.0003ZM20.1213 20.1218L22.2423 22.2428L20.1213 20.1218ZM18.0003 23.9998V20.9998V23.9998ZM13.7573 22.2428L15.8783 20.1208L13.7573 22.2428ZM12.0003 17.9998H15.0003H12.0003ZM15.8783 15.8788L13.7573 13.7578L15.8783 15.8788ZM18.0003 14.9998V11.9998V14.9998ZM20.1213 15.8788L22.2423 13.7578L20.1213 15.8788ZM8 11C10.7614 11 13 8.76142 13 6C13 3.23858 10.7614 1 8 1C5.23858 1 3 3.23858 3 6C3 8.76142 5.23858 11 8 11Z" stroke="#11294C" stroke-width="2"/>
</g>
<defs>
<clipPath id="clip0_771_7376">
<rect width="24" height="24" fill="white"/>
</clipPath>
</defs>
</svg>
