<svg width="24" height="25" viewBox="0 0 24 25" fill="none" xmlns="http://www.w3.org/2000/svg">
<path d="M21.3335 17.833H23.6668V20.1663H0.333496V17.833H2.66683V9.66634C2.66683 7.19099 3.65016 4.81702 5.4005 3.06668C7.15084 1.31634 9.52481 0.333008 12.0002 0.333008C14.4755 0.333008 16.8495 1.31634 18.5998 3.06668C20.3502 4.81702 21.3335 7.19099 21.3335 9.66634V17.833ZM19.0002 17.833V9.66634C19.0002 7.80983 18.2627 6.02935 16.9499 4.71659C15.6372 3.40384 13.8567 2.66634 12.0002 2.66634C10.1436 2.66634 8.36317 3.40384 7.05042 4.71659C5.73766 6.02935 5.00016 7.80983 5.00016 9.66634V17.833H19.0002ZM8.50016 22.4997H15.5002V24.833H8.50016V22.4997Z" fill="#3C414B"/>
</svg>
