<svg width="18" height="18" viewBox="0 0 18 18" fill="none" xmlns="http://www.w3.org/2000/svg">
<path d="M13.1667 2.50065H16.5001C16.7211 2.50065 16.9331 2.58845 17.0893 2.74473C17.2456 2.90101 17.3334 3.11297 17.3334 3.33398V16.6673C17.3334 16.8883 17.2456 17.1003 17.0893 17.2566C16.9331 17.4129 16.7211 17.5007 16.5001 17.5007H1.50008C1.27907 17.5007 1.06711 17.4129 0.910826 17.2566C0.754545 17.1003 0.666748 16.8883 0.666748 16.6673V3.33398C0.666748 3.11297 0.754545 2.90101 0.910826 2.74473C1.06711 2.58845 1.27907 2.50065 1.50008 2.50065H4.83342V0.833984H6.50008V2.50065H11.5001V0.833984H13.1667V2.50065ZM11.5001 4.16732H6.50008V5.83398H4.83342V4.16732H2.33341V7.50065H15.6667V4.16732H13.1667V5.83398H11.5001V4.16732ZM15.6667 9.16732H2.33341V15.834H15.6667V9.16732Z" fill="#3C78F0"/>
</svg>
