<svg width="25" height="25" viewBox="0 0 25 25" fill="none" xmlns="http://www.w3.org/2000/svg">
<path d="M2.61803 16.398V2.5443H0.309082V0.235352H3.77251C4.07869 0.235352 4.37234 0.356983 4.58885 0.57349C4.80535 0.789996 4.92698 1.08364 4.92698 1.38983V15.2435H19.2863L21.5953 6.00773H7.23593V3.69878H23.0753C23.2508 3.69878 23.424 3.73879 23.5817 3.81577C23.7394 3.89274 23.8775 4.00466 23.9854 4.143C24.0934 4.28135 24.1684 4.44249 24.2048 4.61417C24.2411 4.78586 24.2378 4.96356 24.1952 5.13379L21.309 16.6785C21.2464 16.9282 21.1023 17.1498 20.8994 17.3081C20.6965 17.4665 20.4465 17.5525 20.1891 17.5525H3.77251C3.46632 17.5525 3.17268 17.4309 2.95617 17.2143C2.73966 16.9978 2.61803 16.7042 2.61803 16.398ZM4.92698 24.4793C4.31461 24.4793 3.72732 24.2361 3.29431 23.8031C2.8613 23.37 2.61803 22.7828 2.61803 22.1704C2.61803 21.558 2.8613 20.9707 3.29431 20.5377C3.72732 20.1047 4.31461 19.8614 4.92698 19.8614C5.53936 19.8614 6.12665 20.1047 6.55966 20.5377C6.99267 20.9707 7.23593 21.558 7.23593 22.1704C7.23593 22.7828 6.99267 23.37 6.55966 23.8031C6.12665 24.2361 5.53936 24.4793 4.92698 24.4793ZM18.7807 24.4793C18.1683 24.4793 17.581 24.2361 17.148 23.8031C16.715 23.37 16.4717 22.7828 16.4717 22.1704C16.4717 21.558 16.715 20.9707 17.148 20.5377C17.581 20.1047 18.1683 19.8614 18.7807 19.8614C19.3931 19.8614 19.9803 20.1047 20.4134 20.5377C20.8464 20.9707 21.0896 21.558 21.0896 22.1704C21.0896 22.7828 20.8464 23.37 20.4134 23.8031C19.9803 24.2361 19.3931 24.4793 18.7807 24.4793Z" fill="#3C78F0"/>
</svg>
