<svg class="svg-icon" width='22' height='22' viewBox="0 0 1024 1024" version="1.1" xmlns="http://www.w3.org/2000/svg"><path d="M131 100.6h250c41.7 0 62.5 20.8 62.5 62.5v250c0 41.7-20.8 62.5-62.5 62.5H131c-41.7 0-62.5-20.8-62.5-62.5v-250c0-41.7 20.9-62.5 62.5-62.5zM589 257.9h312.5c41.7 0 62.5-20.8 62.5-62.5s-20.8-62.5-62.5-62.5H589c-41.7 0-62.5 20.8-62.5 62.5s20.8 62.5 62.5 62.5z m312.5 60.3H589c-41.7 0-62.5 20.8-62.5 62.5s20.8 62.5 62.5 62.5h312.5c41.7 0 62.5-20.8 62.5-62.5 0-41.6-20.8-62.5-62.5-62.5zM126.1 553.3h250c41.7 0 62.5 20.8 62.5 62.5v250c0 41.7-20.8 62.5-62.5 62.5h-250c-41.7 0-62.5-20.8-62.5-62.5v-250c0-41.7 20.8-62.5 62.5-62.5zM584.1 710.6h312.5c41.7 0 62.5-20.8 62.5-62.5s-20.8-62.5-62.5-62.5H584.1c-41.7 0-62.5 20.8-62.5 62.5s20.8 62.5 62.5 62.5zM896.6 771H584.1c-41.7 0-62.5 20.8-62.5 62.5s20.8 62.5 62.5 62.5h312.5c41.7 0 62.5-20.8 62.5-62.5S938.2 771 896.6 771z"  /></svg>