<svg width="20" height="16" viewBox="0 0 20 16" fill="none" xmlns="http://www.w3.org/2000/svg">
<path d="M10.8333 12.115V13.8333H14.9999V15.5H4.99992V13.8333H9.16658V12.115C7.5555 11.9118 6.07393 11.1277 4.99992 9.90979C3.92591 8.69186 3.33328 7.12384 3.33325 5.5V0.5H16.6666V5.5C16.6666 7.12384 16.0739 8.69186 14.9999 9.90979C13.9259 11.1277 12.4443 11.9118 10.8333 12.115ZM4.99992 2.16667V5.5C4.99992 6.82608 5.5267 8.09785 6.46438 9.03553C7.40207 9.97322 8.67384 10.5 9.99992 10.5C11.326 10.5 12.5978 9.97322 13.5355 9.03553C14.4731 8.09785 14.9999 6.82608 14.9999 5.5V2.16667H4.99992ZM0.833252 2.16667H2.49992V5.5H0.833252V2.16667ZM17.4999 2.16667H19.1666V5.5H17.4999V2.16667Z" fill="#78828C"/>
</svg>
