<svg width="54" height="52" viewBox="0 0 54 52" fill="none" xmlns="http://www.w3.org/2000/svg">
<path d="M32.3333 19.3333L40.3333 13.3333V29.3333L32.3333 23.3333V29.3333H13.6666V13.3333H32.3333V19.3333ZM10.368 37.3333H48.3333V5.33333H5.66665V41.0267L10.368 37.3333ZM12.2133 42.6667L0.333313 52V2.66667C0.333313 1.95942 0.614264 1.28115 1.11436 0.781048C1.61446 0.280951 2.29274 0 2.99998 0H51C51.7072 0 52.3855 0.280951 52.8856 0.781048C53.3857 1.28115 53.6666 1.95942 53.6666 2.66667V40C53.6666 40.7072 53.3857 41.3855 52.8856 41.8856C52.3855 42.3857 51.7072 42.6667 51 42.6667H12.2133Z" fill="#3C78F0"/>
</svg>
