<svg width="20" height="20" viewBox="0 0 20 20" fill="none" xmlns="http://www.w3.org/2000/svg">
<path d="M8 0.5H12C14.1217 0.5 16.1566 1.34285 17.6569 2.84315C19.1571 4.34344 20 6.37827 20 8.5C20 10.6217 19.1571 12.6566 17.6569 14.1569C16.1566 15.6571 14.1217 16.5 12 16.5V20C7 18 0 15 0 8.5C0 6.37827 0.842855 4.34344 2.34315 2.84315C3.84344 1.34285 5.87827 0.5 8 0.5ZM10 14.5H12C12.7879 14.5 13.5681 14.3448 14.2961 14.0433C15.0241 13.7417 15.6855 13.2998 16.2426 12.7426C16.7998 12.1855 17.2417 11.5241 17.5433 10.7961C17.8448 10.0681 18 9.28793 18 8.5C18 7.71207 17.8448 6.93185 17.5433 6.2039C17.2417 5.47595 16.7998 4.81451 16.2426 4.25736C15.6855 3.70021 15.0241 3.25825 14.2961 2.95672C13.5681 2.65519 12.7879 2.5 12 2.5H8C6.4087 2.5 4.88258 3.13214 3.75736 4.25736C2.63214 5.38258 2 6.9087 2 8.5C2 12.11 4.462 14.466 10 16.98V14.5Z" fill="#FF783C"/>
</svg>
