<svg width="21" height="20" viewBox="0 0 21 20" fill="none" xmlns="http://www.w3.org/2000/svg">
<path d="M8.5 0H12.5C14.6217 0 16.6566 0.842855 18.1569 2.34315C19.6571 3.84344 20.5 5.87827 20.5 8C20.5 10.1217 19.6571 12.1566 18.1569 13.6569C16.6566 15.1571 14.6217 16 12.5 16V19.5C7.5 17.5 0.5 14.5 0.5 8C0.5 5.87827 1.34285 3.84344 2.84315 2.34315C4.34344 0.842855 6.37827 0 8.5 0V0ZM10.5 14H12.5C13.2879 14 14.0681 13.8448 14.7961 13.5433C15.5241 13.2417 16.1855 12.7998 16.7426 12.2426C17.2998 11.6855 17.7417 11.0241 18.0433 10.2961C18.3448 9.56815 18.5 8.78793 18.5 8C18.5 7.21207 18.3448 6.43185 18.0433 5.7039C17.7417 4.97595 17.2998 4.31451 16.7426 3.75736C16.1855 3.20021 15.5241 2.75825 14.7961 2.45672C14.0681 2.15519 13.2879 2 12.5 2H8.5C6.9087 2 5.38258 2.63214 4.25736 3.75736C3.13214 4.88258 2.5 6.4087 2.5 8C2.5 11.61 4.962 13.966 10.5 16.48V14Z" fill="#FF783C"/>
</svg>
