<svg width="18" height="18" viewBox="0 0 18 19" fill="none" xmlns="http://www.w3.org/2000/svg">
<path d="M17.3333 13.1696C17.3329 14.3093 16.9434 15.4146 16.2291 16.3027C15.5149 17.1907 14.5188 17.8082 13.4058 18.053L12.8741 16.458C13.361 16.3778 13.824 16.1906 14.2298 15.9099C14.6356 15.6292 14.974 15.2619 15.2208 14.8346H13.1666C12.7246 14.8346 12.3007 14.659 11.9881 14.3465C11.6756 14.0339 11.5 13.61 11.5 13.168V9.83464C11.5 9.39261 11.6756 8.96869 11.9881 8.65612C12.3007 8.34356 12.7246 8.16797 13.1666 8.16797H15.615C15.4116 6.55705 14.6274 5.0757 13.4095 4.00187C12.1916 2.92804 10.6237 2.33553 8.99996 2.33553C7.37625 2.33553 5.80835 2.92804 4.59044 4.00187C3.37253 5.0757 2.58832 6.55705 2.38496 8.16797H4.83329C5.27532 8.16797 5.69924 8.34356 6.0118 8.65612C6.32436 8.96869 6.49996 9.39261 6.49996 9.83464V13.168C6.49996 13.61 6.32436 14.0339 6.0118 14.3465C5.69924 14.659 5.27532 14.8346 4.83329 14.8346H2.33329C1.89127 14.8346 1.46734 14.659 1.15478 14.3465C0.842221 14.0339 0.666626 13.61 0.666626 13.168V9.0013C0.666626 4.3988 4.39746 0.667969 8.99996 0.667969C13.6025 0.667969 17.3333 4.3988 17.3333 9.0013V13.1696Z" fill="#3C78F0"/>
</svg>
