<svg width="22" height="22" viewBox="0 0 20 18" fill="none" xmlns="http://www.w3.org/2000/svg">
    <path fill-rule="evenodd" clip-rule="evenodd" d="M15.85 3.77768C15.85 3.20861 15.8507 2.7989 15.8782 2.47874C15.9062 2.15175 15.9555 2.03179 15.9789 1.99278C15.9849 1.98271 15.9873 1.98098 15.9905 1.97867L15.991 1.97831C15.9974 1.97356 16.0249 1.9551 16.0944 1.93363C16.2503 1.88552 16.5213 1.8499 17 1.8499C17.4788 1.8499 17.7497 1.88552 17.9056 1.93363C17.9752 1.9551 18.0026 1.97356 18.0091 1.97831L18.0096 1.97867C18.0127 1.98098 18.0151 1.98271 18.0212 1.99278C18.0446 2.03179 18.0939 2.15175 18.1219 2.47874C18.1493 2.7989 18.15 3.20861 18.15 3.77768V3.79074V3.80389V3.81713V3.83045V3.84386V3.85735V3.87092V3.88458V3.89833V3.91216V3.92607V3.94006V3.95413V3.96829V3.98253V3.99685V4.01125V4.02573V4.0403V4.05494V4.06966V4.08446V4.09934V4.1143V4.12934V4.14446V4.15965V4.17492V4.19027V4.20569V4.2212V4.23677V4.25243V4.26815V4.28396V4.29983V4.31579V4.33181V4.34791V4.36408V4.38033V4.39665V4.41304V4.4295V4.44603V4.46264V4.47932V4.49606V4.51288V4.52977V4.54672V4.56375V4.58084V4.59801V4.61524V4.63254V4.64991V4.66734V4.68484V4.70241V4.72004V4.73774V4.75551V4.77334V4.79123V4.80919V4.82722V4.84531V4.86346V4.88167V4.89995V4.91829V4.93669V4.95516V4.97368V4.99227V5.01091V5.02962V5.04839V5.06722V5.0861V5.10505V5.12405V5.14312V5.16224V5.18142V5.20065V5.21995V5.2393V5.25871V5.27817V5.29769V5.31726V5.33689V5.35657V5.37631V5.3961V5.41595V5.43585V5.4558V5.47581V5.49586V5.51597V5.53613V5.55635V5.57661V5.59692V5.61729V5.6377V5.65817V5.67868V5.69924V5.71985V5.74051V5.76122V5.78197V5.80278V5.82363V5.84452V5.86546V5.88645V5.90748V5.92856V5.94969V5.97086V5.99207V6.01332V6.03462V6.05597V6.07735V6.09878V6.12025V6.14177V6.16332V6.18492V6.20655V6.22823V6.24995V6.2717V6.2935V6.31533V6.33721V6.35912V6.38107V6.40306V6.42509V6.44715V6.46925V6.49139V6.51356V6.53577V6.55802V6.5803V6.60261V6.62496V6.64734V6.66976V6.69221V6.71469V6.73721V6.75975V6.78233V6.80495V6.82759V6.85027V6.87297V6.89571V6.91847V6.94127V6.96409V6.98695V7.00983V7.03274V7.05568V7.07865V7.10164V7.12466V7.14771V7.17078V7.19388V7.21701V7.24016V7.26334V7.28654V7.30976V7.33301V7.35629V7.37958V7.4029V7.42624V7.44961V7.47299V7.4964V7.51983V7.54328V7.56675V7.59024V7.61375V7.63728V7.66083V7.6844V7.70798V7.73159V7.75521V7.77885V7.80251V7.82619V7.84988V7.87358V7.89731V7.92105V7.9448V7.96857V7.99235V8.01615V8.03996V8.06379V8.08763V8.11148V8.13534V8.15922V8.1831V8.207V8.23091V8.25483V8.27876V8.30271V8.32666V8.35062V8.37459V8.39857V8.42255V8.44655V8.47055V8.49456V8.51858V8.5426V8.56664V8.59067V8.61472V8.63876V8.66282V8.68687V8.71094V8.735V8.75907V8.78315V8.80722V8.8313V8.85538V8.87947V8.90355V8.92764V8.95173V8.97581V8.9999V9.02399V9.04808V9.07216V9.09625V9.12034V9.14442V9.1685V9.19258V9.21666V9.24073V9.2648V9.28887V9.31293V9.33699V9.36104V9.38509V9.40913V9.43317V9.4572V9.48122V9.50524V9.52925V9.55325V9.57725V9.60123V9.62521V9.64918V9.67315V9.6971V9.72104V9.74497V9.76889V9.7928V9.8167V9.84059V9.86446V9.88832V9.91218V9.93601V9.95984V9.98365V10.0074V10.0312V10.055V10.0788V10.1025V10.1262V10.1499V10.1736V10.1973V10.2209V10.2446V10.2682V10.2918V10.3154V10.339V10.3625V10.3861V10.4096V10.4331V10.4565V10.48V10.5034V10.5268V10.5502V10.5736V10.5969V10.6202V10.6435V10.6668V10.69V10.7133V10.7365V10.7596V10.7828V10.8059V10.829V10.8521V10.8751V10.8982V10.9212V10.9441V10.9671V10.99V11.0129V11.0357V11.0585V11.0813V11.1041V11.1268V11.1495V11.1722V11.1949V11.2175V11.24V11.2626V11.2851V11.3076V11.33V11.3525V11.3748V11.3972V11.4195V11.4418V11.464V11.4862V11.5084V11.5306V11.5527V11.5747V11.5967V11.6187V11.6407V11.6626V11.6845V11.7063V11.7281V11.7499V11.7716V11.7933V11.8149V11.8365V11.858V11.8795V11.901V11.9224V11.9438V11.9652V11.9865V12.0077V12.0289V12.0501V12.0712V12.0923V12.1134V12.1343V12.1553V12.1762V12.197V12.2178V12.2386V12.2593V12.2799V12.3006V12.3211V12.3416V12.3621V12.3825V12.4029V12.4232V12.4435V12.4637V12.4838V12.5039V12.524V12.544V12.564V12.5839V12.6037V12.6235V12.6432V12.6629V12.6825V12.7021V12.7216V12.7411V12.7605V12.7799V12.7991V12.8184V12.8376V12.8567V12.8757V12.8948V12.9137V12.9326V12.9514V12.9702V12.9889V13.0075V13.0261V13.0446V13.0631V13.0815V13.0999V13.1181V13.1363V13.1545V13.1726V13.1906V13.2086V13.2265V13.2443V13.2621V13.2798V13.2974V13.315V13.3325V13.3499V13.3673V13.3846V13.4018V13.419V13.4361V13.4531V13.47V13.4869V13.5037V13.5205V13.5372V13.5538V13.5703V13.5868V13.6032V13.6195V13.6357V13.6519V13.668V13.684V13.7V13.7158V13.7316V13.7474V13.763V13.7786V13.7941V13.8095V13.8249V13.8402V13.8553V13.8705V13.8855V13.9005V13.9153V13.9301V13.9449V13.9595V13.9741V13.9886V14.003V14.0173V14.0315V14.0457V14.0597V14.0737V14.0876V14.1015V14.1152V14.1289V14.1425V14.1559V14.1694V14.1827V14.1959V14.2091V14.2221C18.15 14.8943 18.1119 15.3496 18.049 15.6585C17.9858 15.9688 17.9123 16.0564 17.8998 16.0697C17.8953 16.0745 17.8912 16.0783 17.8782 16.0844C17.8612 16.0924 17.8241 16.1063 17.7516 16.1188C17.5859 16.1473 17.3687 16.1499 17 16.1499C16.6256 16.1499 16.4056 16.1473 16.2388 16.1187C16.1657 16.1062 16.129 16.0923 16.113 16.0847C16.1009 16.079 16.098 16.076 16.0946 16.0723C16.0836 16.0605 16.0109 15.9741 15.9487 15.662C15.8869 15.3519 15.85 14.8955 15.85 14.2221V3.77768ZM17 0.149902C16.0337 0.149902 15.0408 0.252043 14.5212 1.11814C14.2946 1.49579 14.2189 1.93139 14.1844 2.33356C14.15 2.73466 14.15 3.21662 14.15 3.74631V3.74633V3.77768V14.2221C14.15 14.9376 14.1876 15.5229 14.2815 15.9941C14.3749 16.4632 14.539 16.8976 14.8525 17.2331C15.1818 17.5854 15.5835 17.7312 15.9517 17.7943C16.2776 17.8501 16.6414 17.85 16.9597 17.8499L17 17.8499L17.0397 17.8499C17.3532 17.85 17.7146 17.8501 18.0398 17.7942C18.4069 17.731 18.8073 17.5855 19.137 17.2356C19.4517 16.9017 19.619 16.4685 19.7148 15.9976C19.811 15.5252 19.85 14.9389 19.85 14.2221V14.2091V14.1959V14.1827V14.1694V14.1559V14.1425V14.1289V14.1152V14.1015V14.0876V14.0737V14.0597V14.0457V14.0315V14.0173V14.003V13.9886V13.9741V13.9595V13.9449V13.9301V13.9153V13.9005V13.8855V13.8705V13.8553V13.8402V13.8249V13.8095V13.7941V13.7786V13.763V13.7474V13.7316V13.7158V13.7V13.684V13.668V13.6519V13.6357V13.6195V13.6032V13.5868V13.5703V13.5538V13.5372V13.5205V13.5037V13.4869V13.47V13.4531V13.4361V13.419V13.4018V13.3846V13.3673V13.3499V13.3325V13.315V13.2974V13.2798V13.2621V13.2443V13.2265V13.2086V13.1906V13.1726V13.1545V13.1363V13.1181V13.0999V13.0815V13.0631V13.0446V13.0261V13.0075V12.9889V12.9702V12.9514V12.9326V12.9137V12.8948V12.8757V12.8567V12.8376V12.8184V12.7991V12.7799V12.7605V12.7411V12.7216V12.7021V12.6825V12.6629V12.6432V12.6235V12.6037V12.5839V12.564V12.544V12.524V12.5039V12.4838V12.4637V12.4435V12.4232V12.4029V12.3825V12.3621V12.3416V12.3211V12.3006V12.2799V12.2593V12.2386V12.2178V12.197V12.1762V12.1553V12.1343V12.1134V12.0923V12.0712V12.0501V12.0289V12.0077V11.9865V11.9652V11.9438V11.9224V11.901V11.8795V11.858V11.8365V11.8149V11.7933V11.7716V11.7499V11.7281V11.7063V11.6845V11.6626V11.6407V11.6187V11.5967V11.5747V11.5527V11.5306V11.5084V11.4862V11.464V11.4418V11.4195V11.3972V11.3748V11.3525V11.33V11.3076V11.2851V11.2626V11.24V11.2175V11.1949V11.1722V11.1495V11.1268V11.1041V11.0813V11.0585V11.0357V11.0129V10.99V10.9671V10.9441V10.9212V10.8982V10.8751V10.8521V10.829V10.8059V10.7828V10.7596V10.7365V10.7133V10.69V10.6668V10.6435V10.6202V10.5969V10.5736V10.5502V10.5268V10.5034V10.48V10.4565V10.4331V10.4096V10.3861V10.3625V10.339V10.3154V10.2918V10.2682V10.2446V10.2209V10.1973V10.1736V10.1499V10.1262V10.1025V10.0788V10.055V10.0312V10.0074V9.98365V9.95984V9.93601V9.91218V9.88832V9.86446V9.84059V9.8167V9.7928V9.76889V9.74497V9.72104V9.6971V9.67315V9.64918V9.62521V9.60123V9.57725V9.55325V9.52925V9.50524V9.48122V9.4572V9.43317V9.40913V9.38509V9.36104V9.33699V9.31293V9.28887V9.2648V9.24073V9.21666V9.19258V9.1685V9.14442V9.12034V9.09625V9.07216V9.04808V9.02399V8.9999V8.97581V8.95173V8.92764V8.90355V8.87947V8.85538V8.8313V8.80722V8.78315V8.75907V8.735V8.71094V8.68687V8.66282V8.63876V8.61472V8.59067V8.56664V8.5426V8.51858V8.49456V8.47055V8.44655V8.42255V8.39857V8.37459V8.35062V8.32666V8.30271V8.27876V8.25483V8.23091V8.207V8.1831V8.15922V8.13534V8.11148V8.08763V8.06379V8.03996V8.01615V7.99235V7.96857V7.9448V7.92105V7.89731V7.87358V7.84988V7.82619V7.80251V7.77885V7.75521V7.73159V7.70798V7.6844V7.66083V7.63728V7.61375V7.59024V7.56675V7.54328V7.51983V7.4964V7.47299V7.44961V7.42624V7.4029V7.37958V7.35629V7.33301V7.30976V7.28654V7.26334V7.24016V7.21701V7.19388V7.17078V7.14771V7.12466V7.10164V7.07865V7.05568V7.03274V7.00983V6.98695V6.96409V6.94127V6.91847V6.89571V6.87297V6.85027V6.82759V6.80495V6.78233V6.75975V6.73721V6.71469V6.69221V6.66976V6.64734V6.62496V6.60261V6.5803V6.55802V6.53577V6.51356V6.49139V6.46925V6.44715V6.42509V6.40306V6.38107V6.35912V6.33721V6.31533V6.2935V6.2717V6.24995V6.22823V6.20655V6.18492V6.16332V6.14177V6.12025V6.09878V6.07735V6.05597V6.03462V6.01332V5.99207V5.97086V5.94969V5.92856V5.90748V5.88645V5.86546V5.84452V5.82363V5.80278V5.78197V5.76122V5.74051V5.71985V5.69924V5.67868V5.65817V5.6377V5.61729V5.59692V5.57661V5.55635V5.53613V5.51597V5.49586V5.47581V5.4558V5.43585V5.41595V5.3961V5.37631V5.35657V5.33689V5.31726V5.29769V5.27817V5.25871V5.2393V5.21995V5.20065V5.18142V5.16224V5.14312V5.12405V5.10505V5.0861V5.06722V5.04839V5.02962V5.01091V4.99227V4.97368V4.95516V4.93669V4.91829V4.89995V4.88167V4.86346V4.84531V4.82722V4.80919V4.79123V4.77334V4.75551V4.73774V4.72004V4.70241V4.68484V4.66734V4.64991V4.63254V4.61524V4.59801V4.58084V4.56375V4.54672V4.52977V4.51288V4.49606V4.47932V4.46264V4.44603V4.4295V4.41304V4.39665V4.38033V4.36408V4.34791V4.33181V4.31579V4.29983V4.28396V4.26815V4.25243V4.23677V4.2212V4.20569V4.19027V4.17492V4.15965V4.14446V4.12934V4.1143V4.09934V4.08446V4.06966V4.05494V4.0403V4.02573V4.01125V3.99685V3.98253V3.96829V3.95413V3.94006V3.92607V3.91216V3.89833V3.88458V3.87092V3.85735V3.84386V3.83045V3.81713V3.80389V3.79074V3.77768L19.85 3.74631C19.85 3.21662 19.8501 2.73466 19.8157 2.33356C19.7812 1.93139 19.7055 1.49579 19.4789 1.11814C18.9592 0.252043 17.9663 0.149902 17 0.149902ZM8.87902 6.49986C8.85401 6.7253 8.853 6.98779 8.853 7.33324L8.85301 10.9999L8.85301 14.6666C8.85301 14.6747 8.8529 14.6829 8.85266 14.6911C8.82788 15.5506 8.98433 15.8411 9.07731 15.9407C9.15766 16.0268 9.35961 16.1499 9.99975 16.1499C10.6255 16.1499 10.8337 16.0283 10.9193 15.9375C11.0145 15.8367 11.1743 15.5456 11.1469 14.6938C11.1466 14.6847 11.1465 14.6757 11.1465 14.6666V10.9999L11.1465 7.33324C11.1465 6.98779 11.1455 6.7253 11.1205 6.49986C11.0958 6.27769 11.054 6.16401 11.0177 6.10336L11.0165 6.10131C10.9931 6.06158 10.8682 5.8499 9.99975 5.8499C9.13125 5.8499 9.00642 6.06158 8.98299 6.10131L8.98178 6.10336C8.94545 6.16401 8.90366 6.27769 8.87902 6.49986ZM7.52341 5.22977C8.00238 4.43018 8.88783 4.1499 9.99975 4.1499C11.1117 4.1499 11.9971 4.43018 12.4761 5.22977C12.6894 5.5858 12.7724 5.97212 12.8101 6.31244C12.8465 6.64089 12.8465 6.9935 12.8465 7.30853L12.8465 7.33324L12.8465 10.9999V14.6533C12.8761 15.6292 12.7263 16.4994 12.156 17.1039C11.5736 17.7215 10.754 17.8499 9.99975 17.8499C9.23819 17.8499 8.41535 17.723 7.83455 17.1007C7.26881 16.4946 7.12652 15.6234 7.15301 14.6546L7.15301 10.9999L7.153 7.33324L7.153 7.30852C7.15298 6.99349 7.15295 6.64089 7.18938 6.31244C7.22713 5.97212 7.31014 5.5858 7.52341 5.22977ZM1.87711 11.5195C1.85089 11.7833 1.85003 12.1017 1.85003 12.5277V15.2942C1.85003 15.7747 1.9662 15.9062 2.02252 15.9538C2.11412 16.0313 2.36207 16.1499 3.00003 16.1499C3.62373 16.1499 3.87547 16.0326 3.97207 15.9516C4.03288 15.9006 4.15003 15.7664 4.15003 15.2942V15.2871V15.28V15.2729V15.2658V15.2588V15.2517V15.2447V15.2377V15.2307V15.2237V15.2167V15.2098V15.2028V15.1959V15.189V15.1821V15.1752V15.1683V15.1615V15.1546V15.1478V15.141V15.1342V15.1274V15.1206V15.1138V15.1071V15.1003V15.0936V15.0869V15.0802V15.0735V15.0669V15.0602V15.0536V15.0469V15.0403V15.0337V15.0271V15.0205V15.014V15.0074V15.0009V14.9943V14.9878V14.9813V14.9748V14.9683V14.9619V14.9554V14.949V14.9425V14.9361V14.9297V14.9233V14.9169V14.9105V14.9042V14.8978V14.8915V14.8852V14.8789V14.8726V14.8663V14.86V14.8537V14.8475V14.8412V14.835V14.8288V14.8226V14.8164V14.8102V14.804V14.7979V14.7917V14.7856V14.7794V14.7733V14.7672V14.7611V14.755V14.7489V14.7429V14.7368V14.7308V14.7247V14.7187V14.7127V14.7067V14.7007V14.6947V14.6888V14.6828V14.6769V14.6709V14.665V14.6591V14.6532V14.6473V14.6414V14.6355V14.6296V14.6238V14.6179V14.6121V14.6062V14.6004V14.5946V14.5888V14.583V14.5772V14.5715V14.5657V14.5599V14.5542V14.5485V14.5427V14.537V14.5313V14.5256V14.5199V14.5142V14.5086V14.5029V14.4972V14.4916V14.4859V14.4803V14.4747V14.4691V14.4635V14.4579V14.4523V14.4467V14.4411V14.4356V14.43V14.4245V14.419V14.4134V14.4079V14.4024V14.3969V14.3914V14.3859V14.3804V14.3749V14.3695V14.364V14.3586V14.3531V14.3477V14.3423V14.3368V14.3314V14.326V14.3206V14.3152V14.3099V14.3045V14.2991V14.2937V14.2884V14.283V14.2777V14.2724V14.267V14.2617V14.2564V14.2511V14.2458V14.2405V14.2352V14.2299V14.2247V14.2194V14.2141V14.2089V14.2036V14.1984V14.1932V14.1879V14.1827V14.1775V14.1723V14.1671V14.1619V14.1567V14.1515V14.1463V14.1411V14.136V14.1308V14.1256V14.1205V14.1153V14.1102V14.1051V14.0999V14.0948V14.0897V14.0846V14.0795V14.0744V14.0693V14.0642V14.0591V14.054V14.0489V14.0438V14.0388V14.0337V14.0286V14.0236V14.0185V14.0135V14.0084V14.0034V13.9984V13.9933V13.9883V13.9833V13.9783V13.9733V13.9683V13.9633V13.9583V13.9533V13.9483V13.9433V13.9383V13.9333V13.9284V13.9234V13.9184V13.9135V13.9085V13.9035V13.8986V13.8936V13.8887V13.8837V13.8788V13.8739V13.8689V13.864V13.8591V13.8542V13.8492V13.8443V13.8394V13.8345V13.8296V13.8247V13.8198V13.8149V13.81V13.8051V13.8002V13.7953V13.7904V13.7856V13.7807V13.7758V13.7709V13.766V13.7612V13.7563V13.7514V13.7466V13.7417V13.7368V13.732V13.7271V13.7223V13.7174V13.7126V13.7077V13.7029V13.698V13.6932V13.6883V13.6835V13.6787V13.6738V13.669V13.6641V13.6593V13.6545V13.6496V13.6448V13.64V13.6352V13.6303V13.6255V13.6207V13.6158V13.611V13.6062V13.6014V13.5966V13.5917V13.5869V13.5821V13.5773V13.5725V13.5676V13.5628V13.558V13.5532V13.5484V13.5435V13.5387V13.5339V13.5291V13.5243V13.5195V13.5146V13.5098V13.505V13.5002V13.4954V13.4906V13.4857V13.4809V13.4761V13.4713V13.4665V13.4616V13.4568V13.452V13.4472V13.4424V13.4375V13.4327V13.4279V13.4231V13.4182V13.4134V13.4086V13.4037V13.3989V13.3941V13.3892V13.3844V13.3796V13.3747V13.3699V13.365V13.3602V13.3554V13.3505V13.3457V13.3408V13.336V13.3311V13.3263V13.3214V13.3165V13.3117V13.3068V13.3019V13.2971V13.2922V13.2873V13.2825V13.2776V13.2727V13.2678V13.2629V13.2581V13.2532V13.2483V13.2434V13.2385V13.2336V13.2287V13.2238V13.2189V13.214V13.209V13.2041V13.1992V13.1943V13.1894V13.1844V13.1795V13.1746V13.1696V13.1647V13.1597V13.1548V13.1498V13.1449V13.1399V13.1349V13.13V13.125V13.12V13.1151V13.1101V13.1051V13.1001V13.0951V13.0901V13.0851V13.0801V13.0751V13.0701V13.065V13.06V13.055V13.0499V13.0449V13.0399V13.0348V13.0298V13.0247V13.0197V13.0146V13.0095V13.0044V12.9994V12.9943V12.9892V12.9841V12.979V12.9739V12.9688V12.9637V12.9585V12.9534V12.9483V12.9431V12.938V12.9328V12.9277V12.9225V12.9174V12.9122V12.907V12.9018V12.8967V12.8915V12.8863V12.8811V12.8758V12.8706V12.8654V12.8602V12.8549V12.8497V12.8444V12.8392V12.8339V12.8287V12.8234V12.8181V12.8128V12.8075V12.8022V12.7969V12.7916V12.7863V12.7809V12.7756V12.7703V12.7649V12.7596V12.7542V12.7488V12.7435V12.7381V12.7327V12.7273V12.7219V12.7165V12.711V12.7056V12.7002V12.6947V12.6893V12.6838V12.6784V12.6729V12.6674V12.6619V12.6564V12.6509V12.6454V12.6399V12.6343V12.6288V12.6233V12.6177V12.6121V12.6066V12.601V12.5954V12.5898V12.5842V12.5786V12.573V12.5673V12.5617V12.5561V12.5504V12.5447V12.5428L4.14311 12.3405V12.3405C4.13205 12.0113 4.12341 11.7539 4.09885 11.5269C4.06936 11.2542 4.02495 11.1271 3.98961 11.0652L3.98894 11.0637C3.97993 11.0436 3.89336 10.8499 3.00003 10.8499C2.10278 10.8499 1.9983 11.0457 1.98392 11.0727L1.98282 11.0747C1.94834 11.1334 1.90328 11.2562 1.87711 11.5195ZM0.517222 10.2133C1.00748 9.37917 1.92522 9.1499 3.00003 9.1499C4.07679 9.1499 4.98578 9.38053 5.46626 10.2228C5.67355 10.5862 5.75045 10.9878 5.78899 11.344C5.82101 11.6401 5.83207 11.9751 5.84295 12.3045C5.84508 12.3691 5.84721 12.4335 5.84949 12.4974L5.84978 12.5071L5.85003 12.5277V12.5334V12.5391V12.5447V12.5504V12.5561V12.5617V12.5673V12.573V12.5786V12.5842V12.5898V12.5954V12.601V12.6066V12.6121V12.6177V12.6233V12.6288V12.6343V12.6399V12.6454V12.6509V12.6564V12.6619V12.6674V12.6729V12.6784V12.6838V12.6893V12.6947V12.7002V12.7056V12.711V12.7165V12.7219V12.7273V12.7327V12.7381V12.7435V12.7488V12.7542V12.7596V12.7649V12.7703V12.7756V12.7809V12.7863V12.7916V12.7969V12.8022V12.8075V12.8128V12.8181V12.8234V12.8287V12.8339V12.8392V12.8444V12.8497V12.8549V12.8602V12.8654V12.8706V12.8758V12.8811V12.8863V12.8915V12.8967V12.9018V12.907V12.9122V12.9174V12.9225V12.9277V12.9328V12.938V12.9431V12.9483V12.9534V12.9585V12.9637V12.9688V12.9739V12.979V12.9841V12.9892V12.9943V12.9994V13.0044V13.0095V13.0146V13.0197V13.0247V13.0298V13.0348V13.0399V13.0449V13.0499V13.055V13.06V13.065V13.0701V13.0751V13.0801V13.0851V13.0901V13.0951V13.1001V13.1051V13.1101V13.1151V13.12V13.125V13.13V13.1349V13.1399V13.1449V13.1498V13.1548V13.1597V13.1647V13.1696V13.1746V13.1795V13.1844V13.1894V13.1943V13.1992V13.2041V13.209V13.214V13.2189V13.2238V13.2287V13.2336V13.2385V13.2434V13.2483V13.2532V13.2581V13.2629V13.2678V13.2727V13.2776V13.2825V13.2873V13.2922V13.2971V13.3019V13.3068V13.3117V13.3165V13.3214V13.3263V13.3311V13.336V13.3408V13.3457V13.3505V13.3554V13.3602V13.365V13.3699V13.3747V13.3796V13.3844V13.3892V13.3941V13.3989V13.4037V13.4086V13.4134V13.4182V13.4231V13.4279V13.4327V13.4375V13.4424V13.4472V13.452V13.4568V13.4616V13.4665V13.4713V13.4761V13.4809V13.4857V13.4906V13.4954V13.5002V13.505V13.5098V13.5146V13.5195V13.5243V13.5291V13.5339V13.5387V13.5435V13.5484V13.5532V13.558V13.5628V13.5676V13.5725V13.5773V13.5821V13.5869V13.5917V13.5966V13.6014V13.6062V13.611V13.6158V13.6207V13.6255V13.6303V13.6352V13.64V13.6448V13.6496V13.6545V13.6593V13.6641V13.669V13.6738V13.6787V13.6835V13.6883V13.6932V13.698V13.7029V13.7077V13.7126V13.7174V13.7223V13.7271V13.732V13.7368V13.7417V13.7466V13.7514V13.7563V13.7612V13.766V13.7709V13.7758V13.7807V13.7856V13.7904V13.7953V13.8002V13.8051V13.81V13.8149V13.8198V13.8247V13.8296V13.8345V13.8394V13.8443V13.8492V13.8542V13.8591V13.864V13.8689V13.8739V13.8788V13.8837V13.8887V13.8936V13.8986V13.9035V13.9085V13.9135V13.9184V13.9234V13.9284V13.9333V13.9383V13.9433V13.9483V13.9533V13.9583V13.9633V13.9683V13.9733V13.9783V13.9833V13.9883V13.9933V13.9984V14.0034V14.0084V14.0135V14.0185V14.0236V14.0286V14.0337V14.0388V14.0438V14.0489V14.054V14.0591V14.0642V14.0693V14.0744V14.0795V14.0846V14.0897V14.0948V14.0999V14.1051V14.1102V14.1153V14.1205V14.1256V14.1308V14.136V14.1411V14.1463V14.1515V14.1567V14.1619V14.1671V14.1723V14.1775V14.1827V14.1879V14.1932V14.1984V14.2036V14.2089V14.2141V14.2194V14.2247V14.2299V14.2352V14.2405V14.2458V14.2511V14.2564V14.2617V14.267V14.2724V14.2777V14.283V14.2884V14.2937V14.2991V14.3045V14.3099V14.3152V14.3206V14.326V14.3314V14.3368V14.3423V14.3477V14.3531V14.3586V14.364V14.3695V14.3749V14.3804V14.3859V14.3914V14.3969V14.4024V14.4079V14.4134V14.419V14.4245V14.43V14.4356V14.4411V14.4467V14.4523V14.4579V14.4635V14.4691V14.4747V14.4803V14.4859V14.4916V14.4972V14.5029V14.5086V14.5142V14.5199V14.5256V14.5313V14.537V14.5427V14.5485V14.5542V14.5599V14.5657V14.5715V14.5772V14.583V14.5888V14.5946V14.6004V14.6062V14.6121V14.6179V14.6238V14.6296V14.6355V14.6414V14.6473V14.6532V14.6591V14.665V14.6709V14.6769V14.6828V14.6888V14.6947V14.7007V14.7067V14.7127V14.7187V14.7247V14.7308V14.7368V14.7429V14.7489V14.755V14.7611V14.7672V14.7733V14.7794V14.7856V14.7917V14.7979V14.804V14.8102V14.8164V14.8226V14.8288V14.835V14.8412V14.8475V14.8537V14.86V14.8663V14.8726V14.8789V14.8852V14.8915V14.8978V14.9042V14.9105V14.9169V14.9233V14.9297V14.9361V14.9425V14.949V14.9554V14.9619V14.9683V14.9748V14.9813V14.9878V14.9943V15.0009V15.0074V15.014V15.0205V15.0271V15.0337V15.0403V15.0469V15.0536V15.0602V15.0669V15.0735V15.0802V15.0869V15.0936V15.1003V15.1071V15.1138V15.1206V15.1274V15.1342V15.141V15.1478V15.1546V15.1615V15.1683V15.1752V15.1821V15.189V15.1959V15.2028V15.2098V15.2167V15.2237V15.2307V15.2377V15.2447V15.2517V15.2588V15.2658V15.2729V15.28V15.2871V15.2942C5.85003 16.0373 5.65832 16.7559 5.0647 17.254C4.50686 17.722 3.75861 17.8499 3.00003 17.8499C2.23401 17.8499 1.48196 17.7233 0.924557 17.2517C0.331864 16.7503 0.150025 16.0289 0.150025 15.2942V12.5277V12.5002V12.5002C0.150007 12.1085 0.149988 11.7082 0.185441 11.3514C0.221772 10.9858 0.301701 10.58 0.517222 10.2133Z" fill="#EDEDEE" />
</svg>