<svg width="20" height="20" viewBox="0 0 20 20" fill="none" xmlns="http://www.w3.org/2000/svg">
<path d="M10.8333 10.0003H13.3333L10 13.3337L6.66667 10.0003H9.16667V6.66699H10.8333V10.0003ZM12.5 3.33366H4.16667V16.667H15.8333V6.66699H12.5V3.33366ZM2.5 2.49366C2.5 2.03699 2.8725 1.66699 3.3325 1.66699H13.3333L17.5 5.83366V17.4945C17.5008 17.6039 17.48 17.7124 17.4388 17.8138C17.3976 17.9152 17.3369 18.0075 17.2601 18.0855C17.1832 18.1634 17.0918 18.2254 16.991 18.268C16.8902 18.3106 16.7819 18.3329 16.6725 18.3337H3.3275C3.10865 18.3321 2.89918 18.2446 2.74435 18.0899C2.58951 17.9352 2.50175 17.7258 2.5 17.507V2.49366Z" fill="#78828C"/>
</svg>
