<svg width="18" height="21" viewBox="0 0 18 21" fill="none" xmlns="http://www.w3.org/2000/svg">
<path d="M10 10.5H13L9 14.5L5 10.5H8V6.5H10V10.5ZM12 2.5H2V18.5H16V6.5H12V2.5ZM0 1.492C0 0.944 0.447 0.5 0.999 0.5H13L18 5.5V19.493C18.0009 19.6243 17.976 19.7545 17.9266 19.8762C17.8772 19.9979 17.8043 20.1087 17.7121 20.2022C17.6199 20.2957 17.5101 20.3701 17.3892 20.4212C17.2682 20.4723 17.1383 20.4991 17.007 20.5H0.993C0.730378 20.4982 0.479017 20.3931 0.293218 20.2075C0.107418 20.0219 0.00209465 19.7706 0 19.508V1.492Z" fill="#3C78F0"/>
</svg>
