<svg width="42" height="42" viewBox="0 0 42 42" fill="none" xmlns="http://www.w3.org/2000/svg">
<rect width="42" height="42" rx="21" fill="#3C78F0" fill-opacity="0.2"/>
<path d="M21 12C23.4453 12 23.7504 12.009 24.7098 12.054C25.6683 12.099 26.3208 12.2493 26.895 12.4725C27.489 12.7011 27.9894 13.0107 28.4898 13.5102C28.9474 13.9601 29.3016 14.5043 29.5275 15.105C29.7498 15.6783 29.901 16.3317 29.946 17.2902C29.9883 18.2496 30 18.5547 30 21C30 23.4453 29.991 23.7504 29.946 24.7098C29.901 25.6683 29.7498 26.3208 29.5275 26.895C29.3022 27.496 28.948 28.0404 28.4898 28.4898C28.0398 28.9473 27.4956 29.3014 26.895 29.5275C26.3217 29.7498 25.6683 29.901 24.7098 29.946C23.7504 29.9883 23.4453 30 21 30C18.5547 30 18.2496 29.991 17.2902 29.946C16.3317 29.901 15.6792 29.7498 15.105 29.5275C14.5041 29.302 13.9598 28.9478 13.5102 28.4898C13.0525 28.04 12.6983 27.4957 12.4725 26.895C12.2493 26.3217 12.099 25.6683 12.054 24.7098C12.0117 23.7504 12 23.4453 12 21C12 18.5547 12.009 18.2496 12.054 17.2902C12.099 16.3308 12.2493 15.6792 12.4725 15.105C12.6977 14.504 13.0519 13.9596 13.5102 13.5102C13.9599 13.0523 14.5042 12.6982 15.105 12.4725C15.6792 12.2493 16.3308 12.099 17.2902 12.054C18.2496 12.0117 18.5547 12 21 12ZM21 16.5C19.8065 16.5 18.6619 16.9741 17.818 17.818C16.9741 18.6619 16.5 19.8065 16.5 21C16.5 22.1935 16.9741 23.3381 17.818 24.182C18.6619 25.0259 19.8065 25.5 21 25.5C22.1935 25.5 23.3381 25.0259 24.182 24.182C25.0259 23.3381 25.5 22.1935 25.5 21C25.5 19.8065 25.0259 18.6619 24.182 17.818C23.3381 16.9741 22.1935 16.5 21 16.5ZM26.85 16.275C26.85 15.9766 26.7315 15.6905 26.5205 15.4795C26.3095 15.2685 26.0234 15.15 25.725 15.15C25.4266 15.15 25.1405 15.2685 24.9295 15.4795C24.7185 15.6905 24.6 15.9766 24.6 16.275C24.6 16.5734 24.7185 16.8595 24.9295 17.0705C25.1405 17.2815 25.4266 17.4 25.725 17.4C26.0234 17.4 26.3095 17.2815 26.5205 17.0705C26.7315 16.8595 26.85 16.5734 26.85 16.275ZM21 18.3C21.7161 18.3 22.4028 18.5845 22.9092 19.0908C23.4155 19.5972 23.7 20.2839 23.7 21C23.7 21.7161 23.4155 22.4028 22.9092 22.9092C22.4028 23.4155 21.7161 23.7 21 23.7C20.2839 23.7 19.5972 23.4155 19.0908 22.9092C18.5845 22.4028 18.3 21.7161 18.3 21C18.3 20.2839 18.5845 19.5972 19.0908 19.0908C19.5972 18.5845 20.2839 18.3 21 18.3Z" fill="#3C78F0"/>
</svg>
