<svg width="16" height="16" viewBox="0 0 16 16" fill="none" xmlns="http://www.w3.org/2000/svg">
<path d="M6.5 0.75H9.5C11.0913 0.75 12.6174 1.38214 13.7426 2.50736C14.8679 3.63258 15.5 5.1587 15.5 6.75C15.5 8.3413 14.8679 9.86742 13.7426 10.9926C12.6174 12.1179 11.0913 12.75 9.5 12.75V15.375C5.75 13.875 0.5 11.625 0.5 6.75C0.5 5.1587 1.13214 3.63258 2.25736 2.50736C3.38258 1.38214 4.9087 0.75 6.5 0.75ZM8 11.25H9.5C10.0909 11.25 10.6761 11.1336 11.2221 10.9075C11.768 10.6813 12.2641 10.3498 12.682 9.93198C13.0998 9.51412 13.4313 9.01804 13.6575 8.47208C13.8836 7.92611 14 7.34095 14 6.75C14 6.15905 13.8836 5.57389 13.6575 5.02792C13.4313 4.48196 13.0998 3.98588 12.682 3.56802C12.2641 3.15016 11.768 2.81869 11.2221 2.59254C10.6761 2.3664 10.0909 2.25 9.5 2.25H6.5C5.30653 2.25 4.16193 2.72411 3.31802 3.56802C2.47411 4.41193 2 5.55653 2 6.75C2 9.4575 3.8465 11.2245 8 13.11V11.25Z" fill="white"/>
</svg>
