<svg width="20" height="17" viewBox="0 0 20 17" fill="none" xmlns="http://www.w3.org/2000/svg">
<path d="M4.16659 6.50033C4.3876 6.50033 4.59956 6.58812 4.75584 6.7444C4.91212 6.90068 4.99992 7.11265 4.99992 7.33366C6.3092 7.33173 7.58074 7.77221 8.60825 8.58366H10.4166C11.5274 8.58366 12.5249 9.06699 13.2116 9.83366H15.8333C16.621 9.83344 17.3926 10.0565 18.0587 10.477C18.7248 10.8975 19.258 11.4982 19.5966 12.2095C17.6258 14.8103 14.4349 16.5003 10.8333 16.5003C8.50825 16.5003 6.54159 15.9978 4.94992 15.1187C4.89162 15.2795 4.78512 15.4185 4.64493 15.5167C4.50475 15.6148 4.3377 15.6673 4.16659 15.667H1.66659C1.44557 15.667 1.23361 15.5792 1.07733 15.4229C0.921049 15.2666 0.833252 15.0547 0.833252 14.8337V7.33366C0.833252 7.11265 0.921049 6.90068 1.07733 6.7444C1.23361 6.58812 1.44557 6.50033 1.66659 6.50033H4.16659ZM5.00075 9.00033L4.99992 13.1853L5.03742 13.212C6.53325 14.262 8.48159 14.8337 10.8333 14.8337C13.3366 14.8337 15.6658 13.8703 17.3624 12.2253L17.4733 12.1145L17.3733 12.0312C16.9798 11.723 16.5028 11.5401 16.0041 11.5062L15.8333 11.5003H14.0741C14.1341 11.7687 14.1666 12.047 14.1666 12.3337V13.167H6.66659V11.5003L12.3249 11.4995L12.2966 11.4345C12.1369 11.1008 11.8912 10.8156 11.5849 10.6082C11.2785 10.4008 10.9224 10.2787 10.5533 10.2545L10.4166 10.2503H7.97492C7.58768 9.85426 7.12514 9.53964 6.61452 9.32498C6.1039 9.11031 5.5555 8.99993 5.00159 9.00033H5.00075ZM3.33325 8.16699H2.49992V14.0003H3.33325V8.16699ZM14.9999 3.16699C15.663 3.16699 16.2988 3.43038 16.7677 3.89923C17.2365 4.36807 17.4999 5.00395 17.4999 5.66699C17.4999 6.33003 17.2365 6.96592 16.7677 7.43476C16.2988 7.9036 15.663 8.16699 14.9999 8.16699C14.3369 8.16699 13.701 7.9036 13.2322 7.43476C12.7633 6.96592 12.4999 6.33003 12.4999 5.66699C12.4999 5.00395 12.7633 4.36807 13.2322 3.89923C13.701 3.43038 14.3369 3.16699 14.9999 3.16699ZM14.9999 4.83366C14.7789 4.83366 14.5669 4.92146 14.4107 5.07774C14.2544 5.23402 14.1666 5.44598 14.1666 5.66699C14.1666 5.88801 14.2544 6.09997 14.4107 6.25625C14.5669 6.41253 14.7789 6.50033 14.9999 6.50033C15.2209 6.50033 15.4329 6.41253 15.5892 6.25625C15.7455 6.09997 15.8333 5.88801 15.8333 5.66699C15.8333 5.44598 15.7455 5.23402 15.5892 5.07774C15.4329 4.92146 15.2209 4.83366 14.9999 4.83366ZM9.16659 0.666992C9.82963 0.666992 10.4655 0.930384 10.9344 1.39923C11.4032 1.86807 11.6666 2.50395 11.6666 3.16699C11.6666 3.83003 11.4032 4.46592 10.9344 4.93476C10.4655 5.4036 9.82963 5.66699 9.16659 5.66699C8.50354 5.66699 7.86766 5.4036 7.39882 4.93476C6.92998 4.46592 6.66659 3.83003 6.66659 3.16699C6.66659 2.50395 6.92998 1.86807 7.39882 1.39923C7.86766 0.930384 8.50354 0.666992 9.16659 0.666992ZM9.16659 2.33366C8.94557 2.33366 8.73361 2.42146 8.57733 2.57774C8.42105 2.73402 8.33325 2.94598 8.33325 3.16699C8.33325 3.38801 8.42105 3.59997 8.57733 3.75625C8.73361 3.91253 8.94557 4.00033 9.16659 4.00033C9.3876 4.00033 9.59956 3.91253 9.75584 3.75625C9.91212 3.59997 9.99992 3.38801 9.99992 3.16699C9.99992 2.94598 9.91212 2.73402 9.75584 2.57774C9.59956 2.42146 9.3876 2.33366 9.16659 2.33366Z" fill="#78828C"/>
</svg>
