<svg width="20" height="20" viewBox="0 0 20 20" fill="none" xmlns="http://www.w3.org/2000/svg">
<path d="M17.0389 17.0433H14.0778V12.4022C14.0778 11.2956 14.0556 9.87111 12.5333 9.87111C10.99 9.87111 10.7544 11.0756 10.7544 12.3211V17.0433H7.79222V7.5H10.6367V8.8H10.6756C11.0733 8.05111 12.04 7.25889 13.4844 7.25889C16.4844 7.25889 17.04 9.23444 17.04 11.8044V17.0433H17.0389ZM4.44778 6.19444C4.22173 6.19474 3.99784 6.15041 3.78896 6.06401C3.58007 5.9776 3.3903 5.85082 3.23051 5.69093C3.07072 5.53104 2.94406 5.34118 2.85779 5.13224C2.77152 4.9233 2.72734 4.69938 2.72778 4.47333C2.728 4.13315 2.82909 3.80067 3.01827 3.51794C3.20745 3.23521 3.47622 3.01493 3.79059 2.88495C4.10496 2.75497 4.45082 2.72113 4.78442 2.78771C5.11803 2.85429 5.4244 3.01831 5.66479 3.25901C5.90518 3.49971 6.06879 3.80629 6.13494 4.13998C6.2011 4.47367 6.16681 4.81948 6.03643 5.13369C5.90604 5.44789 5.68541 5.71638 5.40243 5.90519C5.11946 6.094 4.78796 6.19466 4.44778 6.19444ZM5.93222 17.0433H2.96222V7.5H5.93333V17.0433H5.93222ZM18.5222 0H1.47667C0.658889 0 0 0.644444 0 1.44111V18.5589C0 19.3556 0.66 20 1.47556 20H18.5178C19.3333 20 20 19.3556 20 18.5589V1.44111C20 0.644444 19.3333 0 18.5178 0H18.5222Z" fill="#F2F4F7"/>
</svg>
