<svg width="42" height="42" viewBox="0 0 42 42" fill="none" xmlns="http://www.w3.org/2000/svg">
<rect width="42" height="42" rx="21" fill="#3C78F0" fill-opacity="0.2"/>
<path d="M28 12C28.5304 12 29.0391 12.2107 29.4142 12.5858C29.7893 12.9609 30 13.4696 30 14V28C30 28.5304 29.7893 29.0391 29.4142 29.4142C29.0391 29.7893 28.5304 30 28 30H14C13.4696 30 12.9609 29.7893 12.5858 29.4142C12.2107 29.0391 12 28.5304 12 28V14C12 13.4696 12.2107 12.9609 12.5858 12.5858C12.9609 12.2107 13.4696 12 14 12H28ZM27.5 27.5V22.2C27.5 21.3354 27.1565 20.5062 26.5452 19.8948C25.9338 19.2835 25.1046 18.94 24.24 18.94C23.39 18.94 22.4 19.46 21.92 20.24V19.13H19.13V27.5H21.92V22.57C21.92 21.8 22.54 21.17 23.31 21.17C23.6813 21.17 24.0374 21.3175 24.2999 21.5801C24.5625 21.8426 24.71 22.1987 24.71 22.57V27.5H27.5ZM15.88 17.56C16.3256 17.56 16.7529 17.383 17.0679 17.0679C17.383 16.7529 17.56 16.3256 17.56 15.88C17.56 14.95 16.81 14.19 15.88 14.19C15.4318 14.19 15.0019 14.3681 14.685 14.685C14.3681 15.0019 14.19 15.4318 14.19 15.88C14.19 16.81 14.95 17.56 15.88 17.56ZM17.27 27.5V19.13H14.5V27.5H17.27Z" fill="#3C78F0"/>
</svg>
