<svg width="24" height="24" viewBox="0 0 24 24" fill="none" xmlns="http://www.w3.org/2000/svg">
<path fill-rule="evenodd" clip-rule="evenodd" d="M5.71429 4.8499C5.51314 4.8499 5.30141 4.93721 5.13153 5.12439C4.95917 5.31431 4.85 5.58809 4.85 5.88879V19.111C4.85 19.4117 4.95917 19.6855 5.13153 19.8754C5.30141 20.0626 5.51314 20.1499 5.71429 20.1499H15.15V11.9999V5.88879C15.15 5.58809 15.0408 5.31431 14.8685 5.12439C14.6986 4.93721 14.4869 4.8499 14.2857 4.8499H5.71429ZM5.71429 21.8499H16H18C18.7559 21.8499 19.4808 21.5496 20.0153 21.0152C20.5497 20.4807 20.85 19.7558 20.85 18.9999V11.9999C20.85 11.5305 20.4694 11.1499 20 11.1499H16.85V5.88879C16.85 5.18757 16.5979 4.50045 16.1273 3.9819C15.6542 3.46061 14.9939 3.1499 14.2857 3.1499H5.71429C5.00613 3.1499 4.34578 3.46061 3.87268 3.9819C3.40206 4.50045 3.15 5.18757 3.15 5.88879V19.111C3.15 19.8122 3.40206 20.4993 3.87268 21.0179C4.34578 21.5392 5.00612 21.8499 5.71429 21.8499ZM16.85 20.1499V12.8499H19.15V18.9999C19.15 19.3049 19.0288 19.5974 18.8132 19.8131C18.5975 20.0287 18.305 20.1499 18 20.1499H16.85ZM8 8.1499C7.53056 8.1499 7.15 8.53046 7.15 8.9999C7.15 9.46934 7.53056 9.8499 8 9.8499H12C12.4694 9.8499 12.85 9.46934 12.85 8.9999C12.85 8.53046 12.4694 8.1499 12 8.1499H8ZM7.15 11.9999C7.15 11.5305 7.53056 11.1499 8 11.1499H12C12.4694 11.1499 12.85 11.5305 12.85 11.9999C12.85 12.4693 12.4694 12.8499 12 12.8499H8C7.53056 12.8499 7.15 12.4693 7.15 11.9999ZM8 15.1499C7.53056 15.1499 7.15 15.5305 7.15 15.9999C7.15 16.4693 7.53056 16.8499 8 16.8499H11C11.4694 16.8499 11.85 16.4693 11.85 15.9999C11.85 15.5305 11.4694 15.1499 11 15.1499H8Z" fill="#11294C"/>
</svg>
