<svg width="19" height="22" viewBox="0 0 19 22" fill="none" xmlns="http://www.w3.org/2000/svg">
<path d="M9.5 21.7279L3.136 15.3639C1.87734 14.1052 1.02018 12.5016 0.672921 10.7558C0.325663 9.00995 0.503899 7.20035 1.18509 5.55582C1.86628 3.91129 3.01984 2.50569 4.49988 1.51677C5.97992 0.527838 7.71997 0 9.5 0C11.28 0 13.0201 0.527838 14.5001 1.51677C15.9802 2.50569 17.1337 3.91129 17.8149 5.55582C18.4961 7.20035 18.6743 9.00995 18.3271 10.7558C17.9798 12.5016 17.1227 14.1052 15.864 15.3639L9.5 21.7279ZM14.45 13.9499C15.4289 12.9709 16.0955 11.7236 16.3655 10.3658C16.6356 9.00795 16.4969 7.60052 15.9671 6.32148C15.4373 5.04244 14.54 3.94923 13.3889 3.18009C12.2378 2.41095 10.8844 2.00043 9.5 2.00043C8.11556 2.00043 6.76221 2.41095 5.61108 3.18009C4.45995 3.94923 3.56274 5.04244 3.03291 6.32148C2.50307 7.60052 2.36441 9.00795 2.63445 10.3658C2.90449 11.7236 3.5711 12.9709 4.55 13.9499L9.5 18.8999L14.45 13.9499ZM9.5 10.9999C8.96956 10.9999 8.46086 10.7892 8.08578 10.4141C7.71071 10.0391 7.5 9.53035 7.5 8.99992C7.5 8.46949 7.71071 7.96078 8.08578 7.58571C8.46086 7.21064 8.96956 6.99992 9.5 6.99992C10.0304 6.99992 10.5391 7.21064 10.9142 7.58571C11.2893 7.96078 11.5 8.46949 11.5 8.99992C11.5 9.53035 11.2893 10.0391 10.9142 10.4141C10.5391 10.7892 10.0304 10.9999 9.5 10.9999Z" fill="#FF783C"/>
</svg>
