<svg width="25" height="25" viewBox="0 0 25 25" fill="none" xmlns="http://www.w3.org/2000/svg">
<path d="M12.25 4.73047C11.4685 4.73079 10.6947 4.88545 9.97317 5.18558C9.2516 5.48571 8.5964 5.92539 8.04519 6.47939C7.49398 7.03339 7.0576 7.69079 6.76112 8.41388C6.46464 9.13696 6.31388 9.91147 6.3175 10.693C6.3175 14.813 10.5675 18.5905 11.875 19.5905C11.9848 19.6811 12.1227 19.7307 12.265 19.7307C12.4073 19.7307 12.5452 19.6811 12.655 19.5905C13.965 18.5605 18.18 14.813 18.18 10.693C18.1836 9.91168 18.0329 9.13737 17.7366 8.41445C17.4403 7.69153 17.0041 7.03424 16.4532 6.48027C15.9022 5.92631 15.2473 5.48657 14.5261 5.1863C13.8048 4.88602 13.0313 4.73112 12.25 4.73047ZM12.25 13.158C11.7555 13.158 11.2722 13.0113 10.8611 12.7366C10.45 12.4619 10.1295 12.0715 9.9403 11.6147C9.75108 11.1579 9.70157 10.6552 9.79804 10.1702C9.8945 9.68529 10.1326 9.23983 10.4822 8.8902C10.8319 8.54057 11.2773 8.30247 11.7623 8.20601C12.2472 8.10954 12.7499 8.15905 13.2067 8.34827C13.6635 8.53749 14.054 8.85792 14.3287 9.26904C14.6034 9.68017 14.75 10.1635 14.75 10.658C14.75 11.321 14.4866 11.9569 14.0178 12.4257C13.5489 12.8946 12.913 13.158 12.25 13.158Z" fill="#11294C"/>
</svg>
