<svg width="17" height="18" viewBox="0 0 17 18" fill="none" xmlns="http://www.w3.org/2000/svg">
<path d="M1.16634 17.3337C0.945327 17.3337 0.733366 17.2459 0.577086 17.0896C0.420805 16.9333 0.333008 16.7213 0.333008 16.5003V1.50033C0.333008 1.27931 0.420805 1.06735 0.577086 0.91107C0.733366 0.75479 0.945327 0.666992 1.16634 0.666992H12.833C13.054 0.666992 13.266 0.75479 13.4223 0.91107C13.5785 1.06735 13.6663 1.27931 13.6663 1.50033V4.00033H11.9997V2.33366H1.99967V15.667H11.9997V14.0003H13.6663V16.5003C13.6663 16.7213 13.5785 16.9333 13.4223 17.0896C13.266 17.2459 13.054 17.3337 12.833 17.3337H1.16634ZM11.9997 12.3337V9.83366H6.16634V8.16699H11.9997V5.66699L16.1663 9.00033L11.9997 12.3337Z" fill="#78828C"/>
</svg>
