<svg width="56" height="56" viewBox="0 0 56 56" fill="none" xmlns="http://www.w3.org/2000/svg">
<rect width="56" height="56" rx="8" fill="#002350" fill-opacity="0.2"/>
<path d="M13 43V39.6667C13 37.8986 13.7024 36.2029 14.9526 34.9526C16.2029 33.7024 17.8986 33 19.6667 33H26.3333C28.1014 33 29.7971 33.7024 31.0474 34.9526C32.2976 36.2029 33 37.8986 33 39.6667V43M34.6667 13.2167C36.1007 13.5838 37.3717 14.4178 38.2794 15.5872C39.1871 16.7565 39.6797 18.1947 39.6797 19.675C39.6797 21.1553 39.1871 22.5935 38.2794 23.7628C37.3717 24.9322 36.1007 25.7662 34.6667 26.1333M43 43V39.6667C42.9915 38.1953 42.4965 36.768 41.5921 35.6074C40.6877 34.4467 39.4247 33.6179 38 33.25M29.6667 19.6667C29.6667 23.3486 26.6819 26.3333 23 26.3333C19.3181 26.3333 16.3333 23.3486 16.3333 19.6667C16.3333 15.9848 19.3181 13 23 13C26.6819 13 29.6667 15.9848 29.6667 19.6667Z" stroke="#002350" stroke-width="2.5" stroke-linecap="round" stroke-linejoin="round"/>
</svg>
