<svg width="14" height="19" viewBox="0 0 14 19" fill="none" xmlns="http://www.w3.org/2000/svg">
<path d="M0.333008 18.333C0.333008 16.5649 1.03539 14.8692 2.28563 13.619C3.53587 12.3687 5.23156 11.6663 6.99967 11.6663C8.76778 11.6663 10.4635 12.3687 11.7137 13.619C12.964 14.8692 13.6663 16.5649 13.6663 18.333H11.9997C11.9997 17.0069 11.4729 15.7352 10.5352 14.7975C9.59753 13.8598 8.32576 13.333 6.99967 13.333C5.67359 13.333 4.40182 13.8598 3.46414 14.7975C2.52646 15.7352 1.99967 17.0069 1.99967 18.333H0.333008ZM6.99967 10.833C4.23717 10.833 1.99967 8.59551 1.99967 5.83301C1.99967 3.07051 4.23717 0.833008 6.99967 0.833008C9.76217 0.833008 11.9997 3.07051 11.9997 5.83301C11.9997 8.59551 9.76217 10.833 6.99967 10.833ZM6.99967 9.16634C8.84134 9.16634 10.333 7.67467 10.333 5.83301C10.333 3.99134 8.84134 2.49967 6.99967 2.49967C5.15801 2.49967 3.66634 3.99134 3.66634 5.83301C3.66634 7.67467 5.15801 9.16634 6.99967 9.16634Z" fill="#3C78F0"/>
</svg>
