<svg width="14" height="22" viewBox="0 0 14 22" fill="none" xmlns="http://www.w3.org/2000/svg">
<path d="M2.61702 7.212L5.82202 4.884C6.18181 4.6207 6.61942 4.48551 7.06502 4.5C7.60853 4.51355 8.13431 4.69611 8.56927 5.02228C9.00423 5.34846 9.32676 5.80205 9.49202 6.32C9.67802 6.903 9.84802 7.297 10.002 7.502C10.4673 8.1228 11.0709 8.62661 11.7649 8.97343C12.4589 9.32025 13.2242 9.50054 14 9.5V11.5C12.9673 11.5011 11.9472 11.2733 11.0131 10.8329C10.079 10.3925 9.25422 9.75043 8.59802 8.953L7.90102 12.908L9.96202 14.638L12.185 20.746L10.305 21.43L8.26502 15.826L4.87502 12.981C4.59682 12.7564 4.38394 12.4612 4.25854 12.1264C4.13314 11.7915 4.09981 11.4291 4.16202 11.077L4.67102 8.192L3.99402 8.684L1.86702 11.612L0.249023 10.436L2.60002 7.2L2.61702 7.212ZM8.50002 4C7.96959 4 7.46088 3.78929 7.08581 3.41421C6.71074 3.03914 6.50002 2.53043 6.50002 2C6.50002 1.46957 6.71074 0.960859 7.08581 0.585786C7.46088 0.210714 7.96959 0 8.50002 0C9.03046 0 9.53916 0.210714 9.91424 0.585786C10.2893 0.960859 10.5 1.46957 10.5 2C10.5 2.53043 10.2893 3.03914 9.91424 3.41421C9.53916 3.78929 9.03046 4 8.50002 4ZM5.52802 17.181L2.31402 21.011L0.782023 19.726L3.75802 16.18L4.50402 14L6.29502 15.5L5.52802 17.181Z" fill="#FF783C"/>
</svg>
