<svg width="16" height="19" viewBox="0 0 16 19" fill="none" xmlns="http://www.w3.org/2000/svg">
<path d="M8 18.7726L2.69667 13.4693C1.64779 12.4204 0.933489 11.084 0.644107 9.62916C0.354725 8.1743 0.503256 6.66631 1.07092 5.29587C1.63858 3.92543 2.59987 2.75409 3.83324 1.92999C5.0666 1.10588 6.51665 0.666016 8 0.666016C9.48336 0.666016 10.9334 1.10588 12.1668 1.92999C13.4001 2.75409 14.3614 3.92543 14.9291 5.29587C15.4968 6.66631 15.6453 8.1743 15.3559 9.62916C15.0665 11.084 14.3522 12.4204 13.3033 13.4693L8 18.7726ZM12.125 12.2909C12.9408 11.4751 13.4963 10.4357 13.7213 9.30418C13.9463 8.17264 13.8308 6.99978 13.3892 5.93391C12.9477 4.86805 12.2 3.95704 11.2408 3.31609C10.2815 2.67514 9.1537 2.33304 8 2.33304C6.8463 2.33304 5.71851 2.67514 4.75924 3.31609C3.79997 3.95704 3.05229 4.86805 2.61076 5.93391C2.16923 6.99978 2.05368 8.17264 2.27871 9.30418C2.50374 10.4357 3.05926 11.4751 3.875 12.2909L8 16.4159L12.125 12.2909ZM8 9.83262C7.55798 9.83262 7.13405 9.65702 6.82149 9.34446C6.50893 9.0319 6.33334 8.60798 6.33334 8.16595C6.33334 7.72392 6.50893 7.3 6.82149 6.98744C7.13405 6.67488 7.55798 6.49928 8 6.49928C8.44203 6.49928 8.86595 6.67488 9.17852 6.98744C9.49108 7.3 9.66667 7.72392 9.66667 8.16595C9.66667 8.60798 9.49108 9.0319 9.17852 9.34446C8.86595 9.65702 8.44203 9.83262 8 9.83262Z" fill="#FF783C"/>
</svg>
