<svg width="14" height="14" viewBox="0 0 14 17" fill="none" xmlns="http://www.w3.org/2000/svg">
<path d="M7 16.2959L2.227 11.5229C1.28301 10.5789 0.64014 9.3762 0.379696 8.06683C0.119253 6.75746 0.25293 5.40026 0.763824 4.16687C1.27472 2.93347 2.13988 1.87927 3.24991 1.13757C4.35994 0.395878 5.66498 0 7 0C8.33502 0 9.64006 0.395878 10.7501 1.13757C11.8601 1.87927 12.7253 2.93347 13.2362 4.16687C13.7471 5.40026 13.8808 6.75746 13.6203 8.06683C13.3599 9.3762 12.717 10.5789 11.773 11.5229L7 16.2959ZM10.7125 10.4624C11.4467 9.72819 11.9466 8.79273 12.1492 7.77435C12.3517 6.75596 12.2477 5.70039 11.8503 4.74111C11.4529 3.78183 10.78 2.96192 9.91669 2.38507C9.05334 1.80821 8.03833 1.50032 7 1.50032C5.96167 1.50032 4.94666 1.80821 4.08332 2.38507C3.21997 2.96192 2.54706 3.78183 2.14969 4.74111C1.75231 5.70039 1.64831 6.75596 1.85084 7.77435C2.05337 8.79273 2.55333 9.72819 3.2875 10.4624L7 14.1749L10.7125 10.4624ZM7 8.24994C6.60218 8.24994 6.22065 8.09191 5.93934 7.8106C5.65804 7.5293 5.5 7.14777 5.5 6.74994C5.5 6.35212 5.65804 5.97059 5.93934 5.68928C6.22065 5.40798 6.60218 5.24994 7 5.24994C7.39783 5.24994 7.77936 5.40798 8.06066 5.68928C8.34197 5.97059 8.5 6.35212 8.5 6.74994C8.5 7.14777 8.34197 7.5293 8.06066 7.8106C7.77936 8.09191 7.39783 8.24994 7 8.24994Z" fill="white"/>
</svg>
