<svg width="54" height="54" viewBox="0 0 54 54" fill="none" xmlns="http://www.w3.org/2000/svg">
<path d="M27 24.332C30.5362 24.332 33.9276 25.7368 36.4281 28.2373C38.9286 30.7378 40.3333 34.1291 40.3333 37.6654V53.6654H35V37.6654C35.0001 35.6248 34.2205 33.6613 32.8206 32.1767C31.4207 30.692 29.5064 29.7984 27.4693 29.6787L27 29.6654C24.9594 29.6652 22.996 30.4449 21.5113 31.8448C20.0267 33.2447 19.1331 35.159 19.0133 37.196L19 37.6654V53.6654H13.6667V37.6654C13.6667 34.1291 15.0714 30.7378 17.5719 28.2373C20.0724 25.7368 23.4638 24.332 27 24.332ZM9.66668 32.332C10.4107 32.332 11.1333 32.42 11.8267 32.5827C11.3707 33.94 11.1007 35.3529 11.024 36.7827L11 37.6654V37.8947C10.6935 37.785 10.3747 37.7134 10.0507 37.6814L9.66668 37.6654C8.67232 37.6654 7.71363 38.0358 6.97756 38.7043C6.24148 39.3729 5.7808 40.2916 5.68534 41.2814L5.66668 41.6654V53.6654H0.333344V41.6654C0.333344 39.19 1.31667 36.816 3.06701 35.0657C4.81735 33.3154 7.19132 32.332 9.66668 32.332ZM44.3333 32.332C46.8087 32.332 49.1827 33.3154 50.933 35.0657C52.6833 36.816 53.6667 39.19 53.6667 41.6654V53.6654H48.3333V41.6654C48.3333 40.671 47.9629 39.7123 47.2944 38.9762C46.6258 38.2402 45.7071 37.7795 44.7173 37.684L44.3333 37.6654C43.8667 37.6654 43.4187 37.7454 43 37.892V37.6654C43 35.8894 42.712 34.1827 42.176 32.588C42.8667 32.42 43.5893 32.332 44.3333 32.332ZM9.66668 16.332C11.4348 16.332 13.1305 17.0344 14.3807 18.2847C15.631 19.5349 16.3333 21.2306 16.3333 22.9987C16.3333 24.7668 15.631 26.4625 14.3807 27.7127C13.1305 28.963 11.4348 29.6654 9.66668 29.6654C7.89857 29.6654 6.20287 28.963 4.95263 27.7127C3.70239 26.4625 3.00001 24.7668 3.00001 22.9987C3.00001 21.2306 3.70239 19.5349 4.95263 18.2847C6.20287 17.0344 7.89857 16.332 9.66668 16.332ZM44.3333 16.332C46.1015 16.332 47.7971 17.0344 49.0474 18.2847C50.2976 19.5349 51 21.2306 51 22.9987C51 24.7668 50.2976 26.4625 49.0474 27.7127C47.7971 28.963 46.1015 29.6654 44.3333 29.6654C42.5652 29.6654 40.8695 28.963 39.6193 27.7127C38.3691 26.4625 37.6667 24.7668 37.6667 22.9987C37.6667 21.2306 38.3691 19.5349 39.6193 18.2847C40.8695 17.0344 42.5652 16.332 44.3333 16.332ZM9.66668 21.6654C9.31305 21.6654 8.97392 21.8058 8.72387 22.0559C8.47382 22.3059 8.33334 22.6451 8.33334 22.9987C8.33334 23.3523 8.47382 23.6915 8.72387 23.9415C8.97392 24.1916 9.31305 24.332 9.66668 24.332C10.0203 24.332 10.3594 24.1916 10.6095 23.9415C10.8595 23.6915 11 23.3523 11 22.9987C11 22.6451 10.8595 22.3059 10.6095 22.0559C10.3594 21.8058 10.0203 21.6654 9.66668 21.6654ZM44.3333 21.6654C43.9797 21.6654 43.6406 21.8058 43.3905 22.0559C43.1405 22.3059 43 22.6451 43 22.9987C43 23.3523 43.1405 23.6915 43.3905 23.9415C43.6406 24.1916 43.9797 24.332 44.3333 24.332C44.687 24.332 45.0261 24.1916 45.2761 23.9415C45.5262 23.6915 45.6667 23.3523 45.6667 22.9987C45.6667 22.6451 45.5262 22.3059 45.2761 22.0559C45.0261 21.8058 44.687 21.6654 44.3333 21.6654ZM27 0.332031C29.829 0.332031 32.5421 1.45584 34.5425 3.45623C36.5429 5.45661 37.6667 8.16972 37.6667 10.9987C37.6667 13.8277 36.5429 16.5408 34.5425 18.5412C32.5421 20.5416 29.829 21.6654 27 21.6654C24.171 21.6654 21.4579 20.5416 19.4575 18.5412C17.4571 16.5408 16.3333 13.8277 16.3333 10.9987C16.3333 8.16972 17.4571 5.45661 19.4575 3.45623C21.4579 1.45584 24.171 0.332031 27 0.332031ZM27 5.66536C25.5855 5.66536 24.229 6.22727 23.2288 7.22746C22.2286 8.22765 21.6667 9.58421 21.6667 10.9987C21.6667 12.4132 22.2286 13.7697 23.2288 14.7699C24.229 15.7701 25.5855 16.332 27 16.332C28.4145 16.332 29.771 15.7701 30.7712 14.7699C31.7714 13.7697 32.3333 12.4132 32.3333 10.9987C32.3333 9.58421 31.7714 8.22765 30.7712 7.22746C29.771 6.22727 28.4145 5.66536 27 5.66536Z" fill="#3C78F0"/>
</svg>
