<svg width="827" height="374" viewBox="0 0 827 374" fill="none" xmlns="http://www.w3.org/2000/svg">
<mask id="path-1-inside-1_1186_5576" fill="white">
<path d="M0 0H827V370C827 372.209 825.209 374 823 374H3.99998C1.79084 374 0 372.209 0 370V0Z"/>
</mask>
<path d="M0 0H827V370C827 372.209 825.209 374 823 374H3.99998C1.79084 374 0 372.209 0 370V0Z" fill="white"/>
<rect x="328.647" y="108.853" width="120" height="120" transform="rotate(-45 328.647 108.853)" fill="#3C78F0"/>
<path d="M305.336 229.706H307.352V219.158H311.42V217.466H301.25V219.158H305.336V229.706ZM313.112 229.706H315.038V224.072C315.038 222.74 315.902 221.462 317.342 221.462C318.656 221.462 319.268 222.308 319.268 223.694V229.706H321.176V223.298C321.176 221.03 319.934 219.86 317.936 219.86C316.694 219.86 315.686 220.364 315.038 221.39V216.746H313.112V229.706ZM325.337 223.244C325.517 222.164 326.183 221.48 327.425 221.48C328.901 221.48 329.549 222.236 329.549 223.64V223.856C327.821 223.874 326.525 223.982 325.247 224.414C323.807 224.9 323.087 225.872 323.087 227.186C323.087 229.022 324.419 229.94 326.363 229.94C327.515 229.94 328.757 229.436 329.567 228.302C329.585 228.842 329.639 229.346 329.783 229.706H331.799C331.583 229.184 331.475 228.518 331.475 227.366V223.622C331.475 221.39 330.179 219.86 327.569 219.86C325.175 219.86 323.717 221.12 323.411 223.244H325.337ZM325.031 227.114C325.031 226.016 325.859 225.206 329.549 225.17V225.602C329.549 227.15 328.325 228.428 326.723 228.428C325.697 228.428 325.031 227.924 325.031 227.114ZM333.89 229.706H335.816V224.072C335.816 222.74 336.68 221.462 338.12 221.462C339.434 221.462 340.046 222.308 340.046 223.694V229.706H341.954V223.298C341.954 221.03 340.712 219.86 338.714 219.86C337.472 219.86 336.464 220.364 335.816 221.39V220.112H333.89V229.706ZM344.296 229.706H346.222V224.918L350.2 229.706H352.594L348.202 224.378L352.342 220.112H350.038L346.222 224.18V216.746H344.296V229.706ZM358.216 233.9C359.926 233.9 360.664 233.216 361.636 230.822L365.992 220.112H364.03L361.726 226.088L361.312 227.402L360.898 226.088L358.522 220.112H356.452L360.304 229.364L360.016 230.03C359.188 232.028 358.774 232.244 357.676 232.244H357.154V233.72C357.37 233.792 357.802 233.9 358.216 233.9ZM371.109 229.94C373.845 229.94 375.591 228.158 375.591 224.918C375.591 221.786 373.899 219.86 371.109 219.86C368.373 219.86 366.627 221.66 366.627 224.918C366.627 228.05 368.319 229.94 371.109 229.94ZM371.109 228.32C369.489 228.32 368.589 227.096 368.589 224.918C368.589 222.686 369.489 221.48 371.109 221.48C372.729 221.48 373.629 222.722 373.629 224.918C373.629 227.132 372.747 228.32 371.109 228.32ZM383.514 225.728C383.514 227.06 382.65 228.338 381.246 228.338C379.968 228.338 379.392 227.51 379.392 226.124V220.112H377.466V226.52C377.466 228.788 378.69 229.94 380.652 229.94C381.876 229.94 382.884 229.436 383.514 228.41V229.706H385.422V220.112H383.514V225.728ZM390.22 221.606H391.516V229.706H393.424V221.606H395.26V220.112H393.424V219.626C393.424 218.528 393.748 217.988 395.08 217.988H395.26V216.692C395.062 216.602 394.684 216.512 394.198 216.512C392.398 216.512 391.516 217.52 391.516 219.608V220.112H390.22V221.606ZM400.464 229.94C403.2 229.94 404.946 228.158 404.946 224.918C404.946 221.786 403.254 219.86 400.464 219.86C397.728 219.86 395.982 221.66 395.982 224.918C395.982 228.05 397.674 229.94 400.464 229.94ZM400.464 228.32C398.844 228.32 397.944 227.096 397.944 224.918C397.944 222.686 398.844 221.48 400.464 221.48C402.084 221.48 402.984 222.722 402.984 224.918C402.984 227.132 402.102 228.32 400.464 228.32ZM406.821 229.706H408.747V224.468C408.747 222.794 409.539 221.678 411.375 221.678C411.771 221.678 412.113 221.714 412.401 221.804V220.112C412.221 219.95 411.861 219.86 411.483 219.86C410.367 219.86 409.377 220.382 408.747 221.534V220.112H406.821V229.706ZM417.929 233.9C419.639 233.9 420.377 233.216 421.349 230.822L425.705 220.112H423.743L421.439 226.088L421.025 227.402L420.611 226.088L418.235 220.112H416.165L420.017 229.364L419.729 230.03C418.901 232.028 418.487 232.244 417.389 232.244H416.867V233.72C417.083 233.792 417.515 233.9 417.929 233.9ZM430.822 229.94C433.558 229.94 435.304 228.158 435.304 224.918C435.304 221.786 433.612 219.86 430.822 219.86C428.086 219.86 426.34 221.66 426.34 224.918C426.34 228.05 428.032 229.94 430.822 229.94ZM430.822 228.32C429.202 228.32 428.302 227.096 428.302 224.918C428.302 222.686 429.202 221.48 430.822 221.48C432.442 221.48 433.342 222.722 433.342 224.918C433.342 227.132 432.46 228.32 430.822 228.32ZM443.227 225.728C443.227 227.06 442.363 228.338 440.959 228.338C439.681 228.338 439.105 227.51 439.105 226.124V220.112H437.179V226.52C437.179 228.788 438.403 229.94 440.365 229.94C441.589 229.94 442.597 229.436 443.227 228.41V229.706H445.135V220.112H443.227V225.728ZM447.48 229.706H449.406V224.468C449.406 222.794 450.198 221.678 452.034 221.678C452.43 221.678 452.772 221.714 453.06 221.804V220.112C452.88 219.95 452.52 219.86 452.142 219.86C451.026 219.86 450.036 220.382 449.406 221.534V220.112H447.48V229.706ZM457.903 229.706H459.829V224.468C459.829 222.794 460.621 221.678 462.457 221.678C462.853 221.678 463.195 221.714 463.483 221.804V220.112C463.303 219.95 462.943 219.86 462.565 219.86C461.449 219.86 460.459 220.382 459.829 221.534V220.112H457.903V229.706ZM473.132 226.574H471.116C470.792 227.762 469.928 228.338 468.704 228.338C467.138 228.338 466.22 227.24 466.112 225.278H473.06V224.81C473.06 221.732 471.386 219.86 468.614 219.86C465.878 219.86 464.15 221.66 464.15 224.918C464.15 228.05 465.878 229.94 468.704 229.94C470.954 229.94 472.61 228.806 473.132 226.574ZM468.614 221.462C469.982 221.462 470.828 222.344 471.062 223.964H466.166C466.4 222.344 467.228 221.462 468.614 221.462ZM477.208 229.706H479.566L483.094 220.112H481.132L478.684 227.24L478.45 228.158L478.216 227.24L475.75 220.112H473.68L477.208 229.706ZM484.341 218.924H486.267V216.746H484.341V218.924ZM484.341 229.706H486.267V220.112H484.341V229.706ZM497.109 226.574H495.093C494.769 227.762 493.905 228.338 492.681 228.338C491.115 228.338 490.197 227.24 490.089 225.278H497.037V224.81C497.037 221.732 495.363 219.86 492.591 219.86C489.855 219.86 488.127 221.66 488.127 224.918C488.127 228.05 489.855 229.94 492.681 229.94C494.931 229.94 496.587 228.806 497.109 226.574ZM492.591 221.462C493.959 221.462 494.805 222.344 495.039 223.964H490.143C490.377 222.344 491.205 221.462 492.591 221.462ZM507.213 229.706H509.625L512.415 220.112H510.435L508.671 227.24L508.455 228.266L508.239 227.24L506.205 220.112H504.171L502.155 227.24L501.903 228.32L501.669 227.24L499.905 220.112H497.835L500.607 229.706H502.983L504.891 222.884L505.107 221.804L505.305 222.884L507.213 229.706ZM515.297 222.632C515.297 221.912 515.909 221.39 516.971 221.39C518.195 221.39 518.951 221.894 519.167 223.244H521.093C520.787 220.85 519.203 219.86 517.061 219.86C514.631 219.86 513.461 221.246 513.461 222.74C513.461 226.682 519.509 224.666 519.509 227.06C519.509 227.87 518.825 228.446 517.529 228.446C516.179 228.446 515.279 227.78 515.081 226.574H513.155C513.515 228.86 515.153 229.94 517.475 229.94C519.797 229.94 521.435 228.752 521.435 226.934C521.435 223.028 515.297 225.08 515.297 222.632ZM523.027 229.706H525.259V227.492H523.027V229.706ZM219.395 256.706H221.411V252.26L225.749 244.466H223.607L220.997 249.272L220.475 250.514L219.935 249.272L217.325 244.466H215.057L219.395 252.26V256.706ZM229.974 256.94C232.71 256.94 234.456 255.158 234.456 251.918C234.456 248.786 232.764 246.86 229.974 246.86C227.238 246.86 225.492 248.66 225.492 251.918C225.492 255.05 227.184 256.94 229.974 256.94ZM229.974 255.32C228.354 255.32 227.454 254.096 227.454 251.918C227.454 249.686 228.354 248.48 229.974 248.48C231.594 248.48 232.494 249.722 232.494 251.918C232.494 254.132 231.612 255.32 229.974 255.32ZM242.379 252.728C242.379 254.06 241.515 255.338 240.111 255.338C238.833 255.338 238.257 254.51 238.257 253.124V247.112H236.331V253.52C236.331 255.788 237.555 256.94 239.517 256.94C240.741 256.94 241.749 256.436 242.379 255.41V256.706H244.287V247.112H242.379V252.728ZM250.165 245.924H252.091V243.746H250.165V245.924ZM252.091 257.822V247.112H250.165V257.714C250.165 258.812 249.841 259.334 248.545 259.334H248.383V260.738C248.563 260.828 248.923 260.918 249.391 260.918C251.191 260.918 252.091 259.91 252.091 257.822ZM260.467 252.728C260.467 254.06 259.603 255.338 258.199 255.338C256.921 255.338 256.345 254.51 256.345 253.124V247.112H254.419V253.52C254.419 255.788 255.643 256.94 257.605 256.94C258.829 256.94 259.837 256.436 260.467 255.41V256.706H262.375V247.112H260.467V252.728ZM266.25 249.632C266.25 248.912 266.862 248.39 267.924 248.39C269.148 248.39 269.904 248.894 270.12 250.244H272.046C271.74 247.85 270.156 246.86 268.014 246.86C265.584 246.86 264.414 248.246 264.414 249.74C264.414 253.682 270.462 251.666 270.462 254.06C270.462 254.87 269.778 255.446 268.482 255.446C267.132 255.446 266.232 254.78 266.034 253.574H264.108C264.468 255.86 266.106 256.94 268.428 256.94C270.75 256.94 272.388 255.752 272.388 253.934C272.388 250.028 266.25 252.08 266.25 249.632ZM274.394 253.844C274.394 255.914 275.276 256.94 277.148 256.94C277.688 256.94 278.138 256.868 278.354 256.76V255.356H277.976C276.626 255.356 276.32 254.834 276.32 253.736V248.606H278.39V247.112H276.32V244.898H274.394V247.112H273.098V248.606H274.394V253.844ZM291.488 250.46C291.164 248.066 289.472 246.86 287.33 246.86C284.612 246.86 282.902 248.66 282.902 251.918C282.902 255.032 284.576 256.94 287.348 256.94C289.472 256.94 291.128 255.878 291.542 253.484H289.634C289.346 254.708 288.536 255.338 287.384 255.338C285.764 255.338 284.864 254.096 284.864 251.918C284.864 249.704 285.728 248.48 287.33 248.48C288.446 248.48 289.328 249.092 289.562 250.46H291.488ZM297.351 256.94C300.087 256.94 301.833 255.158 301.833 251.918C301.833 248.786 300.141 246.86 297.351 246.86C294.615 246.86 292.869 248.66 292.869 251.918C292.869 255.05 294.561 256.94 297.351 256.94ZM297.351 255.32C295.731 255.32 294.831 254.096 294.831 251.918C294.831 249.686 295.731 248.48 297.351 248.48C298.971 248.48 299.871 249.722 299.871 251.918C299.871 254.132 298.989 255.32 297.351 255.32ZM303.708 256.706H305.634V251.072C305.634 249.74 306.498 248.462 307.938 248.462C309.252 248.462 309.864 249.308 309.864 250.694V256.706H311.772V250.298C311.772 248.03 310.53 246.86 308.532 246.86C307.29 246.86 306.282 247.364 305.634 248.39V247.112H303.708V256.706ZM314.366 253.844C314.366 255.914 315.248 256.94 317.12 256.94C317.66 256.94 318.11 256.868 318.326 256.76V255.356H317.948C316.598 255.356 316.292 254.834 316.292 253.736V248.606H318.362V247.112H316.292V244.898H314.366V247.112H313.07V248.606H314.366V253.844ZM319.81 256.706H321.736V251.468C321.736 249.794 322.528 248.678 324.364 248.678C324.76 248.678 325.102 248.714 325.39 248.804V247.112C325.21 246.95 324.85 246.86 324.472 246.86C323.356 246.86 322.366 247.382 321.736 248.534V247.112H319.81V256.706ZM326.7 245.924H328.626V243.746H326.7V245.924ZM326.7 256.706H328.626V247.112H326.7V256.706ZM332.88 256.706V255.626C333.492 256.49 334.392 256.94 335.49 256.94C337.974 256.94 339.54 255.14 339.54 251.882C339.54 248.75 338.01 246.86 335.49 246.86C334.392 246.86 333.492 247.346 332.88 248.228V243.746H330.954V256.706H332.88ZM335.238 248.48C336.732 248.48 337.578 249.704 337.578 251.882C337.578 254.114 336.75 255.32 335.238 255.32C333.726 255.32 332.88 254.078 332.88 251.882C332.88 249.686 333.69 248.48 335.238 248.48ZM347.461 252.728C347.461 254.06 346.597 255.338 345.193 255.338C343.915 255.338 343.339 254.51 343.339 253.124V247.112H341.413V253.52C341.413 255.788 342.637 256.94 344.599 256.94C345.823 256.94 346.831 256.436 347.461 255.41V256.706H349.369V247.112H347.461V252.728ZM351.966 253.844C351.966 255.914 352.848 256.94 354.72 256.94C355.26 256.94 355.71 256.868 355.926 256.76V255.356H355.548C354.198 255.356 353.892 254.834 353.892 253.736V248.606H355.962V247.112H353.892V244.898H351.966V247.112H350.67V248.606H351.966V253.844ZM365.923 253.574H363.907C363.583 254.762 362.719 255.338 361.495 255.338C359.929 255.338 359.011 254.24 358.903 252.278H365.851V251.81C365.851 248.732 364.177 246.86 361.405 246.86C358.669 246.86 356.941 248.66 356.941 251.918C356.941 255.05 358.669 256.94 361.495 256.94C363.745 256.94 365.401 255.806 365.923 253.574ZM361.405 248.462C362.773 248.462 363.619 249.344 363.853 250.964H358.957C359.191 249.344 360.019 248.462 361.405 248.462ZM371.38 256.94C372.478 256.94 373.378 256.436 373.99 255.536V256.706H375.916V243.746H373.99V248.192C373.378 247.31 372.478 246.86 371.38 246.86C368.878 246.86 367.312 248.66 367.312 251.918C367.312 255.05 368.842 256.94 371.38 256.94ZM371.632 255.32C370.138 255.32 369.274 254.096 369.274 251.918C369.274 249.704 370.102 248.48 371.632 248.48C373.126 248.48 373.99 249.722 373.99 251.918C373.99 254.132 373.162 255.32 371.632 255.32ZM381.773 245.924H383.699V243.746H381.773V245.924ZM381.773 256.706H383.699V247.112H381.773V256.706ZM386.026 256.706H387.952V251.072C387.952 249.74 388.816 248.462 390.256 248.462C391.57 248.462 392.182 249.308 392.182 250.694V256.706H394.09V250.298C394.09 248.03 392.848 246.86 390.85 246.86C389.608 246.86 388.6 247.364 387.952 248.39V247.112H386.026V256.706ZM399.966 245.924H401.892V243.746H399.966V245.924ZM399.966 256.706H401.892V247.112H399.966V256.706ZM404.22 256.706H406.146V251.072C406.146 249.74 406.938 248.462 408.234 248.462C409.404 248.462 409.944 249.308 409.944 250.694V256.706H411.87V251.072C411.87 249.74 412.662 248.462 413.958 248.462C415.146 248.462 415.668 249.308 415.668 250.694V256.706H417.594V250.298C417.594 248.03 416.37 246.86 414.48 246.86C413.22 246.86 412.176 247.418 411.546 248.516C411.078 247.418 410.124 246.86 408.846 246.86C407.712 246.86 406.758 247.346 406.146 248.336V247.112H404.22V256.706ZM421.861 260.666V255.608C422.473 256.49 423.373 256.94 424.471 256.94C426.973 256.94 428.539 255.14 428.539 251.882C428.539 248.75 427.009 246.86 424.471 246.86C423.373 246.86 422.473 247.364 421.861 248.264V247.112H419.935V260.666H421.861ZM424.237 248.48C425.713 248.48 426.577 249.704 426.577 251.882C426.577 254.096 425.749 255.32 424.237 255.32C422.725 255.32 421.861 254.078 421.861 251.882C421.861 249.686 422.689 248.48 424.237 248.48ZM430.411 256.706H432.337V251.468C432.337 249.794 433.129 248.678 434.965 248.678C435.361 248.678 435.703 248.714 435.991 248.804V247.112C435.811 246.95 435.451 246.86 435.073 246.86C433.957 246.86 432.967 247.382 432.337 248.534V247.112H430.411V256.706ZM441.14 256.94C443.876 256.94 445.622 255.158 445.622 251.918C445.622 248.786 443.93 246.86 441.14 246.86C438.404 246.86 436.658 248.66 436.658 251.918C436.658 255.05 438.35 256.94 441.14 256.94ZM441.14 255.32C439.52 255.32 438.62 254.096 438.62 251.918C438.62 249.686 439.52 248.48 441.14 248.48C442.76 248.48 443.66 249.722 443.66 251.918C443.66 254.132 442.778 255.32 441.14 255.32ZM449.716 256.706H452.074L455.602 247.112H453.64L451.192 254.24L450.958 255.158L450.724 254.24L448.258 247.112H446.188L449.716 256.706ZM456.849 245.924H458.775V243.746H456.849V245.924ZM456.849 256.706H458.775V247.112H456.849V256.706ZM461.103 256.706H463.029V251.072C463.029 249.74 463.893 248.462 465.333 248.462C466.647 248.462 467.259 249.308 467.259 250.694V256.706H469.167V250.298C469.167 248.03 467.925 246.86 465.927 246.86C464.685 246.86 463.677 247.364 463.029 248.39V247.112H461.103V256.706ZM474.965 256.76C476.135 256.76 477.071 256.31 477.719 255.428V257.048C477.719 258.704 476.855 259.37 475.577 259.37C474.317 259.37 473.399 258.758 473.219 257.606H471.293C471.635 259.838 473.291 260.918 475.595 260.918C477.899 260.918 479.645 259.64 479.645 257.012V247.112H477.719V248.12C477.107 247.292 476.189 246.86 474.965 246.86C472.553 246.86 471.041 248.624 471.041 251.828C471.041 254.888 472.517 256.76 474.965 256.76ZM475.361 255.14C473.849 255.14 473.003 253.934 473.003 251.828C473.003 249.65 473.831 248.48 475.361 248.48C476.855 248.48 477.719 249.704 477.719 251.81C477.719 253.97 476.891 255.14 475.361 255.14ZM489.533 256.94C492.269 256.94 494.015 255.158 494.015 251.918C494.015 248.786 492.323 246.86 489.533 246.86C486.797 246.86 485.051 248.66 485.051 251.918C485.051 255.05 486.743 256.94 489.533 256.94ZM489.533 255.32C487.913 255.32 487.013 254.096 487.013 251.918C487.013 249.686 487.913 248.48 489.533 248.48C491.153 248.48 492.053 249.722 492.053 251.918C492.053 254.132 491.171 255.32 489.533 255.32ZM501.938 252.728C501.938 254.06 501.074 255.338 499.67 255.338C498.392 255.338 497.816 254.51 497.816 253.124V247.112H495.89V253.52C495.89 255.788 497.114 256.94 499.076 256.94C500.3 256.94 501.308 256.436 501.938 255.41V256.706H503.846V247.112H501.938V252.728ZM506.191 256.706H508.117V251.468C508.117 249.794 508.909 248.678 510.745 248.678C511.141 248.678 511.483 248.714 511.771 248.804V247.112C511.591 246.95 511.231 246.86 510.853 246.86C509.737 246.86 508.747 247.382 508.117 248.534V247.112H506.191V256.706ZM525.128 253.574H523.112C522.788 254.762 521.924 255.338 520.7 255.338C519.134 255.338 518.216 254.24 518.108 252.278H525.056V251.81C525.056 248.732 523.382 246.86 520.61 246.86C517.874 246.86 516.146 248.66 516.146 251.918C516.146 255.05 517.874 256.94 520.7 256.94C522.95 256.94 524.606 255.806 525.128 253.574ZM520.61 248.462C521.978 248.462 522.824 249.344 523.058 250.964H518.162C518.396 249.344 519.224 248.462 520.61 248.462ZM532.699 256.706H535.021L531.475 251.72L534.751 247.112H532.645L530.899 249.704L530.431 250.532L529.963 249.704L528.181 247.112H525.859L529.135 251.72L525.589 256.706H527.713L529.711 253.754L530.179 252.944L530.647 253.754L532.699 256.706ZM538.21 260.666V255.608C538.822 256.49 539.722 256.94 540.82 256.94C543.322 256.94 544.888 255.14 544.888 251.882C544.888 248.75 543.358 246.86 540.82 246.86C539.722 246.86 538.822 247.364 538.21 248.264V247.112H536.284V260.666H538.21ZM540.586 248.48C542.062 248.48 542.926 249.704 542.926 251.882C542.926 254.096 542.098 255.32 540.586 255.32C539.074 255.32 538.21 254.078 538.21 251.882C538.21 249.686 539.038 248.48 540.586 248.48ZM555.275 253.574H553.259C552.935 254.762 552.071 255.338 550.847 255.338C549.281 255.338 548.363 254.24 548.255 252.278H555.203V251.81C555.203 248.732 553.529 246.86 550.757 246.86C548.021 246.86 546.293 248.66 546.293 251.918C546.293 255.05 548.021 256.94 550.847 256.94C553.097 256.94 554.753 255.806 555.275 253.574ZM550.757 248.462C552.125 248.462 552.971 249.344 553.205 250.964H548.309C548.543 249.344 549.371 248.462 550.757 248.462ZM557.132 256.706H559.058V251.468C559.058 249.794 559.85 248.678 561.686 248.678C562.082 248.678 562.424 248.714 562.712 248.804V247.112C562.532 246.95 562.172 246.86 561.794 246.86C560.678 246.86 559.688 247.382 559.058 248.534V247.112H557.132V256.706ZM564.023 245.924H565.949V243.746H564.023V245.924ZM564.023 256.706H565.949V247.112H564.023V256.706ZM576.79 253.574H574.774C574.45 254.762 573.586 255.338 572.362 255.338C570.796 255.338 569.878 254.24 569.77 252.278H576.718V251.81C576.718 248.732 575.044 246.86 572.272 246.86C569.536 246.86 567.808 248.66 567.808 251.918C567.808 255.05 569.536 256.94 572.362 256.94C574.612 256.94 576.268 255.806 576.79 253.574ZM572.272 248.462C573.64 248.462 574.486 249.344 574.72 250.964H569.824C570.058 249.344 570.886 248.462 572.272 248.462ZM578.648 256.706H580.574V251.072C580.574 249.74 581.438 248.462 582.878 248.462C584.192 248.462 584.804 249.308 584.804 250.694V256.706H586.712V250.298C586.712 248.03 585.47 246.86 583.472 246.86C582.23 246.86 581.222 247.364 580.574 248.39V247.112H578.648V256.706ZM597.172 250.46C596.848 248.066 595.156 246.86 593.014 246.86C590.296 246.86 588.586 248.66 588.586 251.918C588.586 255.032 590.26 256.94 593.032 256.94C595.156 256.94 596.812 255.878 597.226 253.484H595.318C595.03 254.708 594.22 255.338 593.068 255.338C591.448 255.338 590.548 254.096 590.548 251.918C590.548 249.704 591.412 248.48 593.014 248.48C594.13 248.48 595.012 249.092 595.246 250.46H597.172ZM607.535 253.574H605.519C605.195 254.762 604.331 255.338 603.107 255.338C601.541 255.338 600.623 254.24 600.515 252.278H607.463V251.81C607.463 248.732 605.789 246.86 603.017 246.86C600.281 246.86 598.553 248.66 598.553 251.918C598.553 255.05 600.281 256.94 603.107 256.94C605.357 256.94 607.013 255.806 607.535 253.574ZM603.017 248.462C604.385 248.462 605.231 249.344 605.465 250.964H600.569C600.803 249.344 601.631 248.462 603.017 248.462ZM608.913 256.706H611.145V254.492H608.913V256.706Z" fill="#3C414B"/>
<path d="M0 0H827H0ZM827 370C827 372.761 824.761 375 822 375H5C2.23858 375 0 372.761 0 370C0 371.657 1.79086 373 4 373H823C825.209 373 827 371.657 827 370ZM0 374V0V374ZM827 0V374V0Z" fill="#B4BEC8" mask="url(#path-1-inside-1_1186_5576)"/>
</svg>
