<svg width="54" height="54" viewBox="0 0 54 54" fill="none" xmlns="http://www.w3.org/2000/svg">
<path d="M27 53.6654C12.272 53.6654 0.333344 41.7267 0.333344 26.9987C0.333344 12.2707 12.272 0.332031 27 0.332031C41.728 0.332031 53.6667 12.2707 53.6667 26.9987C53.6667 41.7267 41.728 53.6654 27 53.6654ZM27 48.332C32.658 48.332 38.0842 46.0844 42.085 42.0836C46.0857 38.0829 48.3333 32.6567 48.3333 26.9987C48.3333 21.3407 46.0857 15.9145 42.085 11.9138C38.0842 7.91298 32.658 5.66536 27 5.66536C21.3421 5.66536 15.9158 7.91298 11.9151 11.9138C7.91429 15.9145 5.66668 21.3407 5.66668 26.9987C5.66668 32.6567 7.91429 38.0829 11.9151 42.0836C15.9158 46.0844 21.3421 48.332 27 48.332Z" fill="#3C78F0"/>
<path d="M31.544 40.336C30.776 40.336 30.104 40.2827 29.528 40.176C28.952 40.048 28.44 39.856 27.992 39.6C27.5653 39.344 27.1813 39.024 26.84 38.64C26.52 38.2347 26.2213 37.7547 25.944 37.2L22.872 31.312H18.072V29.136H23.352C25.5067 29.136 26.648 28.0053 26.776 25.744H18.072V23.568H26.776C26.648 21.3067 25.5067 20.176 23.352 20.176H18.072V18H34.968V20.176H30.008V20.368C30.6693 20.5173 31.2133 20.8907 31.64 21.488C32.0667 22.064 32.3333 22.7573 32.44 23.568H34.968V25.744H32.344C32.088 26.832 31.5547 27.7387 30.744 28.464C29.9333 29.168 28.9947 29.68 27.928 30L31.608 36.304C32.056 37.0507 32.504 37.552 32.952 37.808C33.4 38.0427 33.976 38.16 34.68 38.16H34.968V40.336H31.544Z" fill="#3C78F0"/>
</svg>
