<svg width="18" height="19" viewBox="0 0 18 19" fill="none" xmlns="http://www.w3.org/2000/svg">
    <path fill-rule="evenodd" clip-rule="evenodd" d="M5.89278 3.29011C5.95944 2.82468 6.10167 2.56798 6.30317 2.39527C6.63848 2.10786 7.36294 1.8499 8.99999 1.8499C10.637 1.8499 11.3615 2.10786 11.6968 2.39527C11.8986 2.56826 12.041 2.82549 12.1075 3.29231C11.2013 3.18934 10.1686 3.1499 8.99999 3.1499C7.82999 3.1499 6.79774 3.18947 5.89278 3.29011ZM4.15888 3.60308C4.20282 2.67755 4.4267 1.76464 5.19682 1.10453C6.02817 0.391946 7.30372 0.149902 8.99999 0.149902C10.6963 0.149902 11.9718 0.391946 12.8032 1.10453C13.5763 1.7672 13.7989 2.68464 13.8416 3.61385C14.7272 3.86083 15.4776 4.2341 16.0804 4.7976C17.2614 5.90148 17.6878 7.55934 17.8092 9.73884C17.8357 9.82109 17.85 9.90883 17.85 9.9999C17.85 10.1576 17.8469 10.3168 17.8387 10.4765C17.8466 10.7792 17.85 11.091 17.85 11.4117C17.85 13.8465 17.5321 15.8445 16.0663 17.154C14.6393 18.4289 12.3374 18.8499 8.99999 18.8499C7.31518 18.8499 5.91601 18.7679 4.77124 18.5395C3.62221 18.3104 2.67022 17.9226 1.93467 17.2675C0.455248 15.9499 0.149994 13.8221 0.149994 10.9999C0.149994 10.7797 0.151852 10.5638 0.15598 10.3521C0.151733 10.2342 0.149994 10.1166 0.149994 9.9999C0.149994 9.93299 0.157727 9.86788 0.172347 9.80542C0.264536 7.57204 0.671831 5.85705 1.93467 4.73234C2.53528 4.19742 3.28021 3.84072 4.15888 3.60308ZM1.85699 10.3409C1.91093 7.91913 2.27967 6.70156 3.06532 6.00184C3.49644 5.61787 4.12778 5.32209 5.10375 5.12743C6.08398 4.93192 7.35148 4.8499 8.99999 4.8499C10.6493 4.8499 11.9142 4.93206 12.8914 5.13288C13.8623 5.3324 14.4892 5.63726 14.9196 6.03952C15.6917 6.76126 16.0646 8.01508 16.1368 10.4589C16.1136 10.8252 16.0586 11.1212 15.9613 11.3694C15.837 11.6867 15.6282 11.9657 15.2262 12.2151C14.3434 12.7629 12.5692 13.1499 9.00604 13.1499C5.44323 13.1499 3.66523 12.763 2.77895 12.2146C2.37502 11.9647 2.165 11.685 2.03996 11.3678C1.93195 11.0939 1.87551 10.7616 1.85699 10.3409ZM15.9826 13.7429C15.8014 14.7422 15.4647 15.4118 14.9337 15.8862C14.0274 16.6959 12.3293 17.1499 8.99999 17.1499C7.35148 17.1499 6.08398 17.0679 5.10375 16.8724C4.12778 16.6777 3.49644 16.3819 3.06532 15.998C2.5477 15.537 2.21104 14.8512 2.02616 13.7443C3.37571 14.5115 5.56839 14.8499 9.00604 14.8499C12.4447 14.8499 14.6357 14.5113 15.9826 13.7429ZM6.14999 10.9999C6.14999 10.5305 6.53055 10.1499 6.99999 10.1499H11C11.4694 10.1499 11.85 10.5305 11.85 10.9999C11.85 11.4693 11.4694 11.8499 11 11.8499L6.99999 11.8499C6.53055 11.8499 6.14999 11.4693 6.14999 10.9999Z" fill="#11294C" />
</svg>