<svg width="107" height="107" viewBox="0 0 107 107" fill="none" xmlns="http://www.w3.org/2000/svg">
<g filter="url(#filter0_d_4816_13199)">
<path d="M99.8459 52.0451C99.8294 63.9492 95.2272 75.3975 87.0556 84.0501L83.1569 87.7402C74.168 95.3553 62.6429 99.3051 50.8751 98.8037C39.1073 98.3022 27.9597 93.3864 19.6505 85.0343C11.3413 76.6822 6.47989 65.5063 6.03367 53.7306C5.58746 41.955 9.58917 30.4429 17.2424 21.4854L21.015 17.6128C27.6991 11.3693 36.0632 7.219 45.0763 5.67363C54.0894 4.12825 63.3574 5.2553 71.738 8.91585C80.1187 12.5764 87.2455 18.6104 92.24 26.2742C97.2346 33.9379 99.8785 42.8963 99.8459 52.0451Z" fill="#FCFCFC"/>
<path d="M96.7177 52.034L96.7177 52.0408C96.7023 63.1117 92.4327 73.7687 84.8404 81.8396L81.0702 85.4081C72.6906 92.4791 61.962 96.145 51.0083 95.6783C40.0264 95.2104 29.6229 90.6228 21.8682 82.828C14.1134 75.0332 9.5761 64.6027 9.15964 53.6122C8.74444 42.6551 12.4554 31.9427 19.5556 23.5938L23.2033 19.8494C29.4324 14.0501 37.2177 10.1949 45.6049 8.75684C54.016 7.31469 62.665 8.36644 70.4859 11.7825C78.3069 15.1986 84.958 20.8298 89.6192 27.9821C94.2805 35.1345 96.7481 43.4953 96.7177 52.034Z" stroke="#6BB043" stroke-opacity="0.3" stroke-width="6.25641"/>
<path d="M47.5817 72.0181C46.8221 72.0189 46.0704 71.8632 45.3733 71.5606C44.6763 71.2579 44.0487 70.8148 43.5297 70.2588L30.9588 56.7927C30.4609 56.26 30.0726 55.6341 29.8159 54.9509C29.5593 54.2677 29.4394 53.5404 29.4631 52.8108C29.4868 52.0811 29.6536 51.3633 29.9541 50.6982C30.2545 50.0332 30.6826 49.434 31.2141 48.9348C31.7455 48.4357 32.3698 48.0463 33.0513 47.7891C33.7328 47.5318 34.4582 47.4116 35.186 47.4353C35.9138 47.4591 36.6299 47.6263 37.2933 47.9275C37.9566 48.2287 38.5543 48.658 39.0522 49.1907L47.2201 57.9336L66.5549 33.4109C67.4798 32.2908 68.8052 31.5779 70.2476 31.4249C71.69 31.272 73.1349 31.691 74.273 32.5924C75.4112 33.4938 76.1523 34.806 76.3377 36.2481C76.5231 37.6903 76.1382 39.148 75.2652 40.3093L51.9421 69.9283C51.4491 70.5618 50.8248 71.0805 50.1124 71.4486C49.4 71.8168 48.6164 72.0256 47.8157 72.0607L47.5817 72.0181Z" fill="#6BB043"/>
</g>
<defs>
<filter id="filter0_d_4816_13199" x="0.525641" y="0.307692" width="106.359" height="106.359" filterUnits="userSpaceOnUse" color-interpolation-filters="sRGB">
<feFlood flood-opacity="0" result="BackgroundImageFix"/>
<feColorMatrix in="SourceAlpha" type="matrix" values="0 0 0 0 0 0 0 0 0 0 0 0 0 0 0 0 0 0 127 0" result="hardAlpha"/>
<feOffset dx="0.782051" dy="1.5641"/>
<feGaussianBlur stdDeviation="3.12821"/>
<feColorMatrix type="matrix" values="0 0 0 0 0.109804 0 0 0 0 0.109804 0 0 0 0 0.117647 0 0 0 0.04 0"/>
<feBlend mode="normal" in2="BackgroundImageFix" result="effect1_dropShadow_4816_13199"/>
<feBlend mode="normal" in="SourceGraphic" in2="effect1_dropShadow_4816_13199" result="shape"/>
</filter>
</defs>
</svg>
