<svg width="688" height="106" viewBox="0 0 688 106" fill="none" xmlns="http://www.w3.org/2000/svg">
<path d="M14.024 37.576C12.04 37.576 10.408 37.24 9.128 36.568C7.88 35.896 7.032 35.096 6.584 34.168H6.344V37H1.688V27.208H6.344V29.32C6.344 30.952 6.92 32.232 8.072 33.16C9.224 34.056 11 34.504 13.4 34.504C15.96 34.504 17.816 33.992 18.968 32.968C20.152 31.944 20.744 30.568 20.744 28.84C20.744 27.304 20.312 26.12 19.448 25.288C18.616 24.456 17.144 23.8 15.032 23.32L12.584 22.744C10.984 22.392 9.544 21.944 8.264 21.4C7.016 20.824 5.928 20.12 5 19.288C4.104 18.424 3.416 17.416 2.936 16.264C2.456 15.112 2.216 13.768 2.216 12.232C2.216 10.856 2.472 9.592 2.984 8.44C3.528 7.288 4.28 6.312 5.24 5.512C6.2 4.68 7.368 4.04 8.744 3.592C10.12 3.144 11.672 2.92 13.4 2.92C15.32 2.92 16.872 3.24 18.056 3.88C19.24 4.52 20.056 5.272 20.504 6.136H20.792V3.496H25.448V13.048H20.792V10.936C20.792 9.304 20.232 8.072 19.112 7.24C17.992 6.408 16.232 5.992 13.832 5.992C11.592 5.992 9.928 6.488 8.84 7.48C7.784 8.44 7.256 9.64 7.256 11.08C7.256 12.616 7.736 13.816 8.696 14.68C9.688 15.512 11.336 16.2 13.64 16.744L15.896 17.224C19.064 17.96 21.528 19.128 23.288 20.728C25.048 22.296 25.928 24.488 25.928 27.304C25.928 28.808 25.656 30.184 25.112 31.432C24.568 32.68 23.784 33.768 22.76 34.696C21.768 35.592 20.52 36.296 19.016 36.808C17.544 37.32 15.88 37.576 14.024 37.576ZM38.8936 37.384C36.9736 37.384 35.6136 37 34.8136 36.232C34.0456 35.464 33.6616 34.216 33.6616 32.488V14.968H30.3496V12.04H31.1656C31.7736 12.04 32.2856 11.992 32.7016 11.896C33.1176 11.8 33.4536 11.656 33.7096 11.464C33.9656 11.24 34.1736 10.984 34.3336 10.696C34.5256 10.376 34.7016 10.008 34.8616 9.592L36.4456 5.368H39.4216V12.04H45.5176V14.968H39.4216V34.12H45.5176V36.376C44.9736 36.632 44.0776 36.856 42.8296 37.048C41.5816 37.272 40.2696 37.384 38.8936 37.384ZM56.225 37.576C53.697 37.576 51.777 36.968 50.465 35.752C49.185 34.504 48.545 32.792 48.545 30.616C48.545 28.184 49.425 26.344 51.185 25.096C52.977 23.848 55.857 23.224 59.825 23.224H63.281V20.056C63.281 18.136 62.849 16.664 61.985 15.64C61.121 14.616 59.761 14.104 57.905 14.104C57.169 14.104 56.497 14.168 55.889 14.296C55.313 14.424 54.801 14.584 54.353 14.776V14.968C54.705 15.128 55.041 15.4 55.361 15.784C55.713 16.168 55.889 16.712 55.889 17.416C55.889 18.376 55.601 19.144 55.025 19.72C54.449 20.296 53.681 20.584 52.721 20.584C51.761 20.584 50.993 20.296 50.417 19.72C49.841 19.144 49.553 18.376 49.553 17.416C49.553 16.648 49.761 15.912 50.177 15.208C50.625 14.504 51.265 13.88 52.097 13.336C52.961 12.76 54.017 12.312 55.265 11.992C56.545 11.64 58.017 11.464 59.681 11.464C62.753 11.464 65.073 12.184 66.641 13.624C68.241 15.032 69.041 17.016 69.041 19.576V34.36H72.353V36.616C71.905 36.872 71.297 37.096 70.529 37.288C69.793 37.48 69.009 37.576 68.177 37.576C66.641 37.576 65.505 37.192 64.769 36.424C64.065 35.624 63.713 34.616 63.713 33.4V33.304H63.473C63.217 33.848 62.913 34.376 62.561 34.888C62.209 35.368 61.745 35.816 61.169 36.232C60.625 36.648 59.937 36.968 59.105 37.192C58.305 37.448 57.345 37.576 56.225 37.576ZM58.529 34.072C59.905 34.072 61.041 33.752 61.937 33.112C62.833 32.44 63.281 31.368 63.281 29.896V25.672H60.401C58.193 25.672 56.641 26.04 55.745 26.776C54.849 27.48 54.401 28.52 54.401 29.896V30.76C54.401 31.88 54.769 32.712 55.505 33.256C56.241 33.8 57.249 34.072 58.529 34.072ZM75.9714 34.312H79.2834V16.072L75.9714 15.448V13.24L84.8994 11.464V15.928H85.1394C85.5874 14.776 86.3074 13.752 87.2994 12.856C88.2914 11.928 89.6354 11.464 91.3314 11.464C92.8674 11.464 94.0834 11.848 94.9794 12.616C95.8754 13.384 96.3234 14.472 96.3234 15.88C96.3234 17.032 96.0194 17.928 95.4114 18.568C94.8354 19.208 94.0354 19.528 93.0114 19.528C91.9874 19.528 91.1714 19.256 90.5634 18.712C89.9874 18.168 89.6994 17.496 89.6994 16.696C89.6994 16.152 89.8114 15.688 90.0354 15.304C90.2914 14.92 90.5794 14.696 90.8994 14.632L90.8514 14.488C90.7554 14.456 90.6434 14.44 90.5154 14.44C90.3874 14.408 90.2114 14.392 89.9874 14.392C89.3794 14.392 88.7714 14.552 88.1634 14.872C87.5874 15.16 87.0594 15.56 86.5794 16.072C86.1314 16.552 85.7634 17.096 85.4754 17.704C85.1874 18.312 85.0434 18.904 85.0434 19.48V34.312H89.3154V37H75.9714V34.312ZM107.519 37.384C105.599 37.384 104.239 37 103.439 36.232C102.671 35.464 102.287 34.216 102.287 32.488V14.968H98.9746V12.04H99.7906C100.399 12.04 100.911 11.992 101.327 11.896C101.743 11.8 102.079 11.656 102.335 11.464C102.591 11.24 102.799 10.984 102.959 10.696C103.151 10.376 103.327 10.008 103.487 9.592L105.071 5.368H108.047V12.04H114.143V14.968H108.047V34.12H114.143V36.376C113.599 36.632 112.703 36.856 111.455 37.048C110.207 37.272 108.895 37.384 107.519 37.384ZM132.598 47.176C130.774 47.176 129.398 46.76 128.47 45.928C127.574 45.096 127.126 44.072 127.126 42.856C127.126 41.864 127.398 41.064 127.942 40.456C128.518 39.88 129.318 39.592 130.342 39.592C131.27 39.592 131.99 39.88 132.502 40.456C133.046 41.032 133.318 41.752 133.318 42.616C133.318 43.096 133.206 43.512 132.982 43.864C132.79 44.216 132.566 44.472 132.31 44.632L132.358 44.824C132.646 44.92 132.95 44.968 133.27 44.968C134.998 44.968 136.502 43.352 137.782 40.12L138.598 38.056L129.046 14.776H126.646V12.04H138.406V14.776H135.286L141.382 31H141.622L147.478 14.776H144.358V12.04H153.334V14.776H150.934L140.518 40.456C140.166 41.32 139.75 42.152 139.27 42.952C138.79 43.784 138.23 44.504 137.59 45.112C136.982 45.752 136.262 46.248 135.43 46.6C134.598 46.984 133.654 47.176 132.598 47.176ZM166.955 34.6C168.939 34.6 170.395 34.008 171.323 32.824C172.251 31.608 172.715 30.008 172.715 28.024V21.016C172.715 19.032 172.251 17.448 171.323 16.264C170.395 15.048 168.939 14.44 166.955 14.44C164.971 14.44 163.515 15.048 162.587 16.264C161.659 17.448 161.195 19.032 161.195 21.016V28.024C161.195 30.008 161.659 31.608 162.587 32.824C163.515 34.008 164.971 34.6 166.955 34.6ZM166.955 37.576C165.163 37.576 163.515 37.272 162.011 36.664C160.539 36.056 159.275 35.192 158.219 34.072C157.163 32.952 156.347 31.592 155.771 29.992C155.195 28.36 154.907 26.536 154.907 24.52C154.907 22.504 155.195 20.696 155.771 19.096C156.347 17.464 157.163 16.088 158.219 14.968C159.275 13.848 160.539 12.984 162.011 12.376C163.515 11.768 165.163 11.464 166.955 11.464C168.747 11.464 170.379 11.768 171.851 12.376C173.355 12.984 174.635 13.848 175.691 14.968C176.747 16.088 177.563 17.464 178.139 19.096C178.715 20.696 179.003 22.504 179.003 24.52C179.003 26.536 178.715 28.36 178.139 29.992C177.563 31.592 176.747 32.952 175.691 34.072C174.635 35.192 173.355 36.056 171.851 36.664C170.379 37.272 168.747 37.576 166.955 37.576ZM194.12 37.576C191.016 37.576 188.808 36.808 187.496 35.272C186.216 33.704 185.576 31.352 185.576 28.216V16.072L182.312 15.448V13.24L191.336 11.464V27.928C191.336 29.944 191.72 31.432 192.488 32.392C193.288 33.32 194.552 33.784 196.28 33.784C196.92 33.784 197.544 33.704 198.152 33.544C198.792 33.352 199.352 33.08 199.832 32.728C200.344 32.376 200.744 31.944 201.032 31.432C201.352 30.888 201.512 30.248 201.512 29.512V16.072L198.2 15.448V13.24L207.272 11.464V32.968L210.584 33.592V35.8L201.656 37.576V33.064H201.416C201.224 33.608 200.92 34.152 200.504 34.696C200.088 35.24 199.576 35.736 198.968 36.184C198.392 36.6 197.688 36.936 196.856 37.192C196.056 37.448 195.144 37.576 194.12 37.576ZM214.206 34.312H217.518V16.072L214.206 15.448V13.24L223.134 11.464V15.928H223.374C223.822 14.776 224.542 13.752 225.534 12.856C226.526 11.928 227.87 11.464 229.566 11.464C231.102 11.464 232.318 11.848 233.214 12.616C234.11 13.384 234.558 14.472 234.558 15.88C234.558 17.032 234.254 17.928 233.646 18.568C233.07 19.208 232.27 19.528 231.246 19.528C230.222 19.528 229.406 19.256 228.798 18.712C228.222 18.168 227.934 17.496 227.934 16.696C227.934 16.152 228.046 15.688 228.27 15.304C228.526 14.92 228.814 14.696 229.134 14.632L229.086 14.488C228.99 14.456 228.878 14.44 228.75 14.44C228.622 14.408 228.446 14.392 228.222 14.392C227.614 14.392 227.006 14.552 226.398 14.872C225.822 15.16 225.294 15.56 224.814 16.072C224.366 16.552 223.998 17.096 223.71 17.704C223.422 18.312 223.278 18.904 223.278 19.48V34.312H227.55V37H214.206V34.312ZM248.667 47.176C246.843 47.176 245.483 46.792 244.587 46.024C243.659 45.288 243.195 44.312 243.195 43.096C243.195 42.264 243.467 41.56 244.011 40.984C244.523 40.44 245.211 40.168 246.075 40.168C246.971 40.168 247.643 40.408 248.091 40.888C248.539 41.4 248.763 42.04 248.763 42.808C248.763 43.288 248.667 43.704 248.475 44.056C248.283 44.44 248.043 44.712 247.755 44.872V45.016C248.043 45.112 248.379 45.16 248.763 45.16C250.683 45.16 251.643 43.736 251.643 40.888V16.072L248.331 15.448V13.24L257.403 11.464V38.152C257.403 41.256 256.635 43.528 255.099 44.968C253.595 46.44 251.451 47.176 248.667 47.176ZM254.523 7.528C253.403 7.528 252.539 7.224 251.931 6.616C251.323 5.976 251.019 5.176 251.019 4.216V3.976C251.019 3.016 251.323 2.232 251.931 1.624C252.539 0.983998 253.403 0.663999 254.523 0.663999C255.643 0.663999 256.507 0.983998 257.115 1.624C257.723 2.232 258.027 3.016 258.027 3.976V4.216C258.027 5.176 257.723 5.976 257.115 6.616C256.507 7.224 255.643 7.528 254.523 7.528ZM275.892 34.6C277.876 34.6 279.332 34.008 280.26 32.824C281.188 31.608 281.652 30.008 281.652 28.024V21.016C281.652 19.032 281.188 17.448 280.26 16.264C279.332 15.048 277.876 14.44 275.892 14.44C273.908 14.44 272.452 15.048 271.524 16.264C270.596 17.448 270.132 19.032 270.132 21.016V28.024C270.132 30.008 270.596 31.608 271.524 32.824C272.452 34.008 273.908 34.6 275.892 34.6ZM275.892 37.576C274.1 37.576 272.452 37.272 270.948 36.664C269.476 36.056 268.212 35.192 267.156 34.072C266.1 32.952 265.284 31.592 264.708 29.992C264.132 28.36 263.844 26.536 263.844 24.52C263.844 22.504 264.132 20.696 264.708 19.096C265.284 17.464 266.1 16.088 267.156 14.968C268.212 13.848 269.476 12.984 270.948 12.376C272.452 11.768 274.1 11.464 275.892 11.464C277.684 11.464 279.316 11.768 280.788 12.376C282.292 12.984 283.572 13.848 284.628 14.968C285.684 16.088 286.5 17.464 287.076 19.096C287.652 20.696 287.94 22.504 287.94 24.52C287.94 26.536 287.652 28.36 287.076 29.992C286.5 31.592 285.684 32.952 284.628 34.072C283.572 35.192 282.292 36.056 280.788 36.664C279.316 37.272 277.684 37.576 275.892 37.576ZM303.057 37.576C299.953 37.576 297.745 36.808 296.433 35.272C295.153 33.704 294.513 31.352 294.513 28.216V16.072L291.249 15.448V13.24L300.273 11.464V27.928C300.273 29.944 300.657 31.432 301.425 32.392C302.225 33.32 303.489 33.784 305.217 33.784C305.857 33.784 306.481 33.704 307.089 33.544C307.729 33.352 308.289 33.08 308.769 32.728C309.281 32.376 309.681 31.944 309.969 31.432C310.289 30.888 310.449 30.248 310.449 29.512V16.072L307.137 15.448V13.24L316.209 11.464V32.968L319.521 33.592V35.8L310.593 37.576V33.064H310.353C310.161 33.608 309.857 34.152 309.441 34.696C309.025 35.24 308.513 35.736 307.905 36.184C307.329 36.6 306.625 36.936 305.793 37.192C304.993 37.448 304.081 37.576 303.057 37.576ZM323.143 34.312H326.455V16.072L323.143 15.448V13.24L332.071 11.464V15.928H332.311C332.759 14.776 333.479 13.752 334.471 12.856C335.463 11.928 336.807 11.464 338.503 11.464C340.039 11.464 341.255 11.848 342.151 12.616C343.047 13.384 343.495 14.472 343.495 15.88C343.495 17.032 343.191 17.928 342.583 18.568C342.007 19.208 341.207 19.528 340.183 19.528C339.159 19.528 338.343 19.256 337.735 18.712C337.159 18.168 336.871 17.496 336.871 16.696C336.871 16.152 336.983 15.688 337.207 15.304C337.463 14.92 337.751 14.696 338.071 14.632L338.023 14.488C337.927 14.456 337.815 14.44 337.687 14.44C337.559 14.408 337.383 14.392 337.159 14.392C336.551 14.392 335.943 14.552 335.335 14.872C334.759 15.16 334.231 15.56 333.751 16.072C333.303 16.552 332.935 17.096 332.647 17.704C332.359 18.312 332.215 18.904 332.215 19.48V34.312H336.487V37H323.143V34.312ZM346.112 34.312H349.424V16.072L346.112 15.448V13.24L355.04 11.464V15.976H355.28C355.472 15.432 355.776 14.888 356.192 14.344C356.608 13.8 357.104 13.32 357.68 12.904C358.288 12.456 358.992 12.104 359.792 11.848C360.624 11.592 361.552 11.464 362.576 11.464C365.68 11.464 367.872 12.248 369.152 13.816C370.464 15.352 371.12 17.672 371.12 20.776V34.312H374.432V37H362.144V34.312H365.36V21.064C365.36 19.08 364.96 17.624 364.16 16.696C363.392 15.736 362.144 15.256 360.416 15.256C359.776 15.256 359.136 15.352 358.496 15.544C357.888 15.704 357.328 15.96 356.816 16.312C356.336 16.664 355.936 17.112 355.616 17.656C355.328 18.2 355.184 18.84 355.184 19.576V34.312H358.4V37H346.112V34.312ZM389.986 37.576C388.066 37.576 386.354 37.256 384.85 36.616C383.378 35.976 382.114 35.08 381.058 33.928C380.034 32.776 379.25 31.4 378.706 29.8C378.194 28.2 377.938 26.44 377.938 24.52C377.938 22.536 378.226 20.744 378.802 19.144C379.378 17.544 380.178 16.184 381.202 15.064C382.258 13.912 383.49 13.032 384.898 12.424C386.338 11.784 387.922 11.464 389.65 11.464C391.378 11.464 392.93 11.752 394.306 12.328C395.714 12.872 396.898 13.656 397.858 14.68C398.85 15.704 399.602 16.936 400.114 18.376C400.626 19.816 400.882 21.4 400.882 23.128V24.52H384.178V26.056C384.178 28.456 384.802 30.328 386.05 31.672C387.298 32.984 388.978 33.64 391.09 33.64C392.978 33.64 394.482 33.256 395.602 32.488C396.722 31.688 397.57 30.68 398.146 29.464L400.354 30.76C400.066 31.592 399.634 32.408 399.058 33.208C398.482 34.008 397.762 34.744 396.898 35.416C396.066 36.056 395.074 36.584 393.922 37C392.77 37.384 391.458 37.576 389.986 37.576ZM384.178 21.88H394.93V21.304C394.93 19.064 394.498 17.336 393.634 16.12C392.77 14.904 391.458 14.296 389.698 14.296C387.906 14.296 386.53 14.888 385.57 16.072C384.642 17.256 384.178 18.968 384.178 21.208V21.88ZM408.645 47.176C406.821 47.176 405.445 46.76 404.517 45.928C403.621 45.096 403.173 44.072 403.173 42.856C403.173 41.864 403.445 41.064 403.989 40.456C404.565 39.88 405.365 39.592 406.389 39.592C407.317 39.592 408.037 39.88 408.549 40.456C409.093 41.032 409.365 41.752 409.365 42.616C409.365 43.096 409.253 43.512 409.029 43.864C408.837 44.216 408.613 44.472 408.357 44.632L408.405 44.824C408.693 44.92 408.997 44.968 409.317 44.968C411.045 44.968 412.549 43.352 413.829 40.12L414.645 38.056L405.093 14.776H402.693V12.04H414.453V14.776H411.333L417.429 31H417.669L423.525 14.776H420.405V12.04H429.381V14.776H426.981L416.565 40.456C416.213 41.32 415.797 42.152 415.317 42.952C414.837 43.784 414.277 44.504 413.637 45.112C413.029 45.752 412.309 46.248 411.477 46.6C410.645 46.984 409.701 47.176 408.645 47.176ZM454.908 34.6C456.892 34.6 458.348 34.008 459.276 32.824C460.204 31.608 460.668 30.008 460.668 28.024V21.016C460.668 19.032 460.204 17.448 459.276 16.264C458.348 15.048 456.892 14.44 454.908 14.44C452.924 14.44 451.468 15.048 450.54 16.264C449.612 17.448 449.148 19.032 449.148 21.016V28.024C449.148 30.008 449.612 31.608 450.54 32.824C451.468 34.008 452.924 34.6 454.908 34.6ZM454.908 37.576C453.116 37.576 451.468 37.272 449.964 36.664C448.492 36.056 447.228 35.192 446.172 34.072C445.116 32.952 444.3 31.592 443.724 29.992C443.148 28.36 442.86 26.536 442.86 24.52C442.86 22.504 443.148 20.696 443.724 19.096C444.3 17.464 445.116 16.088 446.172 14.968C447.228 13.848 448.492 12.984 449.964 12.376C451.468 11.768 453.116 11.464 454.908 11.464C456.7 11.464 458.332 11.768 459.804 12.376C461.308 12.984 462.588 13.848 463.644 14.968C464.7 16.088 465.516 17.464 466.092 19.096C466.668 20.696 466.956 22.504 466.956 24.52C466.956 26.536 466.668 28.36 466.092 29.992C465.516 31.592 464.7 32.952 463.644 34.072C462.588 35.192 461.308 36.056 459.804 36.664C458.332 37.272 456.7 37.576 454.908 37.576ZM470.796 34.312H474.108V14.968H470.796V12.04H474.108V8.68C474.108 6.024 474.956 3.928 476.652 2.392C478.348 0.823998 480.62 0.0399981 483.468 0.0399981C485.516 0.0399981 487.068 0.455998 488.124 1.288C489.212 2.088 489.756 3.144 489.756 4.456C489.756 5.384 489.484 6.136 488.94 6.712C488.396 7.288 487.676 7.576 486.78 7.576C485.852 7.576 485.132 7.32 484.62 6.808C484.14 6.264 483.9 5.624 483.9 4.888C483.9 4.28 484.028 3.8 484.284 3.448C484.54 3.064 484.844 2.792 485.196 2.632V2.488C484.844 2.392 484.364 2.344 483.756 2.344C481.164 2.344 479.868 4.152 479.868 7.768V12.04H485.1V14.968H479.868V34.312H484.14V37H470.796V34.312ZM510.656 37.576C508.992 37.576 507.632 37.256 506.576 36.616C505.552 35.976 504.88 35.272 504.56 34.504H504.368V37H500.48V29.512H504.368V30.376C504.368 31.688 504.768 32.728 505.568 33.496C506.4 34.232 507.776 34.6 509.696 34.6C511.424 34.6 512.72 34.328 513.584 33.784C514.448 33.208 514.88 32.312 514.88 31.096C514.88 29.272 513.632 28.072 511.136 27.496L508.448 26.872C505.824 26.296 503.872 25.368 502.592 24.088C501.312 22.808 500.672 21.096 500.672 18.952C500.672 16.584 501.472 14.744 503.072 13.432C504.672 12.12 506.832 11.464 509.552 11.464C511.184 11.464 512.48 11.736 513.44 12.28C514.432 12.824 515.056 13.496 515.312 14.296H515.504V12.04H519.392V19.528H515.504V18.136C515.504 16.92 515.088 16.008 514.256 15.4C513.456 14.76 512.144 14.44 510.32 14.44C508.88 14.44 507.776 14.712 507.008 15.256C506.24 15.8 505.856 16.6 505.856 17.656C505.856 19.608 507.12 20.872 509.648 21.448L512.144 22.024C514.768 22.632 516.736 23.528 518.048 24.712C519.392 25.896 520.064 27.624 520.064 29.896C520.064 31.048 519.84 32.104 519.392 33.064C518.944 33.992 518.304 34.792 517.472 35.464C516.672 36.136 515.696 36.648 514.544 37C513.392 37.384 512.096 37.576 510.656 37.576ZM524.518 34.312H527.83V16.072L524.518 15.448V13.24L533.446 11.464V15.976H533.686C533.91 15.4 534.214 14.856 534.598 14.344C534.982 13.8 535.462 13.32 536.038 12.904C536.646 12.456 537.334 12.104 538.102 11.848C538.902 11.592 539.798 11.464 540.79 11.464C542.966 11.464 544.678 11.864 545.926 12.664C547.206 13.464 548.086 14.664 548.566 16.264H548.758C549.014 15.688 549.35 15.112 549.766 14.536C550.214 13.96 550.742 13.448 551.35 13C551.99 12.52 552.726 12.152 553.558 11.896C554.39 11.608 555.35 11.464 556.438 11.464C559.478 11.464 561.622 12.248 562.87 13.816C564.15 15.352 564.79 17.672 564.79 20.776V34.312H568.102V37H555.91V34.312H559.03V21.064C559.03 19.08 558.646 17.624 557.878 16.696C557.11 15.736 555.91 15.256 554.278 15.256C553.638 15.256 553.014 15.352 552.406 15.544C551.798 15.704 551.254 15.96 550.774 16.312C550.294 16.664 549.91 17.112 549.622 17.656C549.334 18.2 549.19 18.84 549.19 19.576V34.312H552.31V37H540.31V34.312H543.43V21.064C543.43 19.08 543.046 17.624 542.278 16.696C541.51 15.736 540.31 15.256 538.678 15.256C538.038 15.256 537.414 15.352 536.806 15.544C536.198 15.704 535.654 15.96 535.174 16.312C534.694 16.664 534.31 17.112 534.022 17.656C533.734 18.2 533.59 18.84 533.59 19.576V34.312H536.71V37H524.518V34.312ZM579.163 37.576C576.635 37.576 574.715 36.968 573.403 35.752C572.123 34.504 571.483 32.792 571.483 30.616C571.483 28.184 572.363 26.344 574.123 25.096C575.915 23.848 578.795 23.224 582.763 23.224H586.219V20.056C586.219 18.136 585.787 16.664 584.923 15.64C584.059 14.616 582.699 14.104 580.843 14.104C580.107 14.104 579.435 14.168 578.827 14.296C578.251 14.424 577.739 14.584 577.291 14.776V14.968C577.643 15.128 577.979 15.4 578.299 15.784C578.651 16.168 578.827 16.712 578.827 17.416C578.827 18.376 578.539 19.144 577.963 19.72C577.387 20.296 576.619 20.584 575.659 20.584C574.699 20.584 573.931 20.296 573.355 19.72C572.779 19.144 572.491 18.376 572.491 17.416C572.491 16.648 572.699 15.912 573.115 15.208C573.563 14.504 574.203 13.88 575.035 13.336C575.899 12.76 576.955 12.312 578.203 11.992C579.483 11.64 580.955 11.464 582.619 11.464C585.691 11.464 588.011 12.184 589.579 13.624C591.179 15.032 591.979 17.016 591.979 19.576V34.36H595.291V36.616C594.843 36.872 594.235 37.096 593.467 37.288C592.731 37.48 591.947 37.576 591.115 37.576C589.579 37.576 588.443 37.192 587.707 36.424C587.003 35.624 586.651 34.616 586.651 33.4V33.304H586.411C586.155 33.848 585.851 34.376 585.499 34.888C585.147 35.368 584.683 35.816 584.107 36.232C583.563 36.648 582.875 36.968 582.043 37.192C581.243 37.448 580.283 37.576 579.163 37.576ZM581.467 34.072C582.843 34.072 583.979 33.752 584.875 33.112C585.771 32.44 586.219 31.368 586.219 29.896V25.672H583.339C581.131 25.672 579.579 26.04 578.683 26.776C577.787 27.48 577.339 28.52 577.339 29.896V30.76C577.339 31.88 577.707 32.712 578.443 33.256C579.179 33.8 580.187 34.072 581.467 34.072ZM598.909 34.312H602.221V16.072L598.909 15.448V13.24L607.837 11.464V15.928H608.077C608.525 14.776 609.245 13.752 610.237 12.856C611.229 11.928 612.573 11.464 614.269 11.464C615.805 11.464 617.021 11.848 617.917 12.616C618.813 13.384 619.261 14.472 619.261 15.88C619.261 17.032 618.957 17.928 618.349 18.568C617.773 19.208 616.973 19.528 615.949 19.528C614.925 19.528 614.109 19.256 613.501 18.712C612.925 18.168 612.637 17.496 612.637 16.696C612.637 16.152 612.749 15.688 612.973 15.304C613.229 14.92 613.517 14.696 613.837 14.632L613.789 14.488C613.693 14.456 613.581 14.44 613.453 14.44C613.325 14.408 613.149 14.392 612.925 14.392C612.317 14.392 611.709 14.552 611.101 14.872C610.525 15.16 609.997 15.56 609.517 16.072C609.069 16.552 608.701 17.096 608.413 17.704C608.125 18.312 607.981 18.904 607.981 19.48V34.312H612.253V37H598.909V34.312ZM630.456 37.384C628.536 37.384 627.176 37 626.376 36.232C625.608 35.464 625.224 34.216 625.224 32.488V14.968H621.912V12.04H622.728C623.336 12.04 623.848 11.992 624.264 11.896C624.68 11.8 625.016 11.656 625.272 11.464C625.528 11.24 625.736 10.984 625.896 10.696C626.088 10.376 626.264 10.008 626.424 9.592L628.008 5.368H630.984V12.04H637.08V14.968H630.984V34.12H637.08V36.376C636.536 36.632 635.64 36.856 634.392 37.048C633.144 37.272 631.832 37.384 630.456 37.384ZM652.252 37.576C650.332 37.576 648.62 37.256 647.116 36.616C645.644 35.976 644.38 35.08 643.324 33.928C642.3 32.776 641.516 31.4 640.972 29.8C640.46 28.2 640.204 26.44 640.204 24.52C640.204 22.536 640.492 20.744 641.068 19.144C641.644 17.544 642.444 16.184 643.468 15.064C644.524 13.912 645.756 13.032 647.164 12.424C648.604 11.784 650.188 11.464 651.916 11.464C653.644 11.464 655.196 11.752 656.572 12.328C657.98 12.872 659.164 13.656 660.124 14.68C661.116 15.704 661.868 16.936 662.38 18.376C662.892 19.816 663.148 21.4 663.148 23.128V24.52H646.444V26.056C646.444 28.456 647.068 30.328 648.316 31.672C649.564 32.984 651.244 33.64 653.356 33.64C655.244 33.64 656.748 33.256 657.868 32.488C658.988 31.688 659.836 30.68 660.412 29.464L662.62 30.76C662.332 31.592 661.9 32.408 661.324 33.208C660.748 34.008 660.028 34.744 659.164 35.416C658.332 36.056 657.34 36.584 656.188 37C655.036 37.384 653.724 37.576 652.252 37.576ZM646.444 21.88H657.196V21.304C657.196 19.064 656.764 17.336 655.9 16.12C655.036 14.904 653.724 14.296 651.964 14.296C650.172 14.296 648.796 14.888 647.836 16.072C646.908 17.256 646.444 18.968 646.444 21.208V21.88ZM667.159 34.312H670.471V16.072L667.159 15.448V13.24L676.087 11.464V15.928H676.327C676.775 14.776 677.495 13.752 678.487 12.856C679.479 11.928 680.823 11.464 682.519 11.464C684.055 11.464 685.271 11.848 686.167 12.616C687.063 13.384 687.511 14.472 687.511 15.88C687.511 17.032 687.207 17.928 686.599 18.568C686.023 19.208 685.223 19.528 684.199 19.528C683.175 19.528 682.359 19.256 681.751 18.712C681.175 18.168 680.887 17.496 680.887 16.696C680.887 16.152 680.999 15.688 681.223 15.304C681.479 14.92 681.767 14.696 682.087 14.632L682.039 14.488C681.943 14.456 681.831 14.44 681.703 14.44C681.575 14.408 681.399 14.392 681.175 14.392C680.567 14.392 679.959 14.552 679.351 14.872C678.775 15.16 678.247 15.56 677.767 16.072C677.319 16.552 676.951 17.096 676.663 17.704C676.375 18.312 676.231 18.904 676.231 19.48V34.312H680.503V37H667.159V34.312ZM227.084 95.576C224.556 95.576 222.636 94.968 221.324 93.752C220.044 92.504 219.404 90.792 219.404 88.616C219.404 86.184 220.284 84.344 222.044 83.096C223.836 81.848 226.716 81.224 230.684 81.224H234.14V78.056C234.14 76.136 233.708 74.664 232.844 73.64C231.98 72.616 230.62 72.104 228.764 72.104C228.028 72.104 227.356 72.168 226.748 72.296C226.172 72.424 225.66 72.584 225.212 72.776V72.968C225.564 73.128 225.9 73.4 226.22 73.784C226.572 74.168 226.748 74.712 226.748 75.416C226.748 76.376 226.46 77.144 225.884 77.72C225.308 78.296 224.54 78.584 223.58 78.584C222.62 78.584 221.852 78.296 221.276 77.72C220.7 77.144 220.412 76.376 220.412 75.416C220.412 74.648 220.62 73.912 221.036 73.208C221.484 72.504 222.124 71.88 222.956 71.336C223.82 70.76 224.876 70.312 226.124 69.992C227.404 69.64 228.876 69.464 230.54 69.464C233.612 69.464 235.932 70.184 237.5 71.624C239.1 73.032 239.9 75.016 239.9 77.576V92.36H243.212V94.616C242.764 94.872 242.156 95.096 241.388 95.288C240.652 95.48 239.868 95.576 239.036 95.576C237.5 95.576 236.364 95.192 235.628 94.424C234.924 93.624 234.572 92.616 234.572 91.4V91.304H234.332C234.076 91.848 233.772 92.376 233.42 92.888C233.068 93.368 232.604 93.816 232.028 94.232C231.484 94.648 230.796 94.968 229.964 95.192C229.164 95.448 228.204 95.576 227.084 95.576ZM229.388 92.072C230.764 92.072 231.9 91.752 232.796 91.112C233.692 90.44 234.14 89.368 234.14 87.896V83.672H231.26C229.052 83.672 227.5 84.04 226.604 84.776C225.708 85.48 225.26 86.52 225.26 87.896V88.76C225.26 89.88 225.628 90.712 226.364 91.256C227.1 91.8 228.108 92.072 229.388 92.072ZM246.831 92.312H250.143V74.072L246.831 73.448V71.24L255.759 69.464V73.976H255.999C256.191 73.432 256.495 72.888 256.911 72.344C257.327 71.8 257.823 71.32 258.399 70.904C259.007 70.456 259.711 70.104 260.511 69.848C261.343 69.592 262.271 69.464 263.295 69.464C266.399 69.464 268.591 70.248 269.871 71.816C271.183 73.352 271.839 75.672 271.839 78.776V92.312H275.151V95H262.863V92.312H266.079V79.064C266.079 77.08 265.679 75.624 264.879 74.696C264.111 73.736 262.863 73.256 261.135 73.256C260.495 73.256 259.855 73.352 259.215 73.544C258.607 73.704 258.047 73.96 257.535 74.312C257.055 74.664 256.655 75.112 256.335 75.656C256.047 76.2 255.903 76.84 255.903 77.576V92.312H259.119V95H246.831V92.312ZM289.169 95.576C287.601 95.576 286.177 95.288 284.897 94.712C283.649 94.104 282.577 93.24 281.681 92.12C280.785 91 280.097 89.64 279.617 88.04C279.137 86.408 278.897 84.568 278.897 82.52C278.897 80.472 279.137 78.648 279.617 77.048C280.097 75.416 280.785 74.04 281.681 72.92C282.577 71.8 283.649 70.952 284.897 70.376C286.177 69.768 287.601 69.464 289.169 69.464C291.089 69.464 292.625 69.896 293.777 70.76C294.929 71.592 295.761 72.584 296.273 73.736H296.513V62.648L293.201 62.024V59.816L302.273 58.04V90.968L305.585 91.592V93.8L296.513 95.576V91.304H296.273C295.793 92.456 294.961 93.464 293.777 94.328C292.625 95.16 291.089 95.576 289.169 95.576ZM290.993 91.976C291.697 91.976 292.385 91.88 293.057 91.688C293.729 91.464 294.321 91.16 294.833 90.776C295.345 90.36 295.745 89.88 296.033 89.336C296.353 88.76 296.513 88.104 296.513 87.368V77.672C296.513 76.968 296.353 76.328 296.033 75.752C295.745 75.176 295.345 74.696 294.833 74.312C294.321 73.896 293.729 73.592 293.057 73.4C292.385 73.176 291.697 73.064 290.993 73.064C289.169 73.064 287.713 73.672 286.625 74.888C285.569 76.104 285.041 77.768 285.041 79.88V85.16C285.041 87.272 285.569 88.936 286.625 90.152C287.713 91.368 289.169 91.976 290.993 91.976Z" fill="white"/>
<path d="M0.296 91.736H3.176V63.656L0.296 63.032V60.152L10.952 58.04V91.736H13.832V95H0.296V91.736ZM29.621 95.576C27.605 95.576 25.797 95.256 24.197 94.616C22.629 93.944 21.301 93.016 20.213 91.832C19.157 90.648 18.341 89.256 17.765 87.656C17.221 86.056 16.949 84.296 16.949 82.376C16.949 80.328 17.237 78.488 17.813 76.856C18.389 75.224 19.205 73.848 20.261 72.728C21.349 71.608 22.645 70.744 24.149 70.136C25.653 69.528 27.333 69.224 29.189 69.224C31.013 69.224 32.661 69.496 34.133 70.04C35.637 70.584 36.901 71.368 37.925 72.392C38.949 73.384 39.733 74.6 40.277 76.04C40.853 77.448 41.141 79.048 41.141 80.84V82.52H25.157V84.536C25.157 86.616 25.717 88.184 26.837 89.24C27.957 90.264 29.445 90.776 31.301 90.776C33.029 90.776 34.421 90.392 35.477 89.624C36.565 88.824 37.333 87.88 37.781 86.792L40.565 88.424C40.277 89.192 39.845 90.008 39.269 90.872C38.725 91.704 38.005 92.472 37.109 93.176C36.245 93.88 35.189 94.456 33.941 94.904C32.693 95.352 31.253 95.576 29.621 95.576ZM25.157 79.4H33.173V78.728C33.173 76.456 32.805 74.872 32.069 73.976C31.365 73.08 30.421 72.632 29.237 72.632C28.021 72.632 27.029 73.08 26.261 73.976C25.525 74.84 25.157 76.424 25.157 78.728V79.4ZM52.9895 95.576C50.1735 95.576 48.1415 94.952 46.8935 93.704C45.6455 92.424 45.0215 90.632 45.0215 88.328C45.0215 85.864 45.9655 84.008 47.8535 82.76C49.7735 81.512 52.5735 80.888 56.2535 80.888H59.6615V78.2C59.6615 76.248 59.2775 74.792 58.5095 73.832C57.7735 72.84 56.4935 72.344 54.6695 72.344C53.9975 72.344 53.4215 72.392 52.9415 72.488C52.4935 72.552 52.0935 72.664 51.7415 72.824V73.112C52.0615 73.272 52.3655 73.56 52.6535 73.976C52.9735 74.36 53.1335 74.904 53.1335 75.608C53.1335 76.6 52.8135 77.432 52.1735 78.104C51.5335 78.776 50.5895 79.112 49.3415 79.112C48.3175 79.112 47.4695 78.776 46.7975 78.104C46.1575 77.4 45.8375 76.52 45.8375 75.464C45.8375 74.696 46.0615 73.944 46.5095 73.208C46.9895 72.44 47.6775 71.768 48.5735 71.192C49.5015 70.584 50.6535 70.104 52.0295 69.752C53.4055 69.4 54.9895 69.224 56.7815 69.224C60.4615 69.224 63.1495 69.992 64.8455 71.528C66.5735 73.032 67.4375 75.144 67.4375 77.864V91.736H70.3175V94.568C69.7415 94.888 68.9895 95.128 68.0615 95.288C67.1335 95.48 66.1895 95.576 65.2295 95.576C63.4055 95.576 62.1255 95.16 61.3895 94.328C60.6535 93.496 60.2855 92.472 60.2855 91.256V91.208H60.0935C59.8375 91.72 59.5335 92.248 59.1815 92.792C58.8615 93.304 58.4295 93.768 57.8855 94.184C57.3415 94.6 56.6695 94.936 55.8695 95.192C55.0695 95.448 54.1095 95.576 52.9895 95.576ZM55.9175 91.112C57.0695 91.112 57.9815 90.856 58.6535 90.344C59.3255 89.832 59.6615 88.904 59.6615 87.56V83.816H57.0695C55.6295 83.816 54.5255 84.136 53.7575 84.776C53.0215 85.416 52.6535 86.312 52.6535 87.464V88.184C52.6535 89.208 52.9575 89.96 53.5655 90.44C54.1735 90.888 54.9575 91.112 55.9175 91.112ZM73.3854 91.736H76.2654V74.84L73.3854 74.216V71.336L83.8974 69.224V73.928H84.0894C84.5374 72.584 85.2734 71.464 86.2974 70.568C87.3214 69.672 88.6494 69.224 90.2814 69.224C91.9134 69.224 93.1774 69.656 94.0734 70.52C94.9694 71.384 95.4174 72.552 95.4174 74.024C95.4174 75.368 95.0654 76.408 94.3614 77.144C93.6894 77.88 92.6974 78.248 91.3854 78.248C90.1694 78.248 89.2414 77.944 88.6014 77.336C87.9934 76.696 87.6894 75.928 87.6894 75.032C87.6894 74.68 87.7694 74.36 87.9294 74.072C88.0894 73.752 88.2814 73.544 88.5054 73.448L88.4094 73.16C88.3454 73.128 88.2334 73.112 88.0734 73.112C87.5934 73.112 87.1134 73.256 86.6334 73.544C86.1534 73.832 85.7214 74.2 85.3374 74.648C84.9534 75.096 84.6334 75.592 84.3774 76.136C84.1534 76.648 84.0414 77.16 84.0414 77.672V91.736H87.8814V95H73.3854V91.736ZM97.7604 91.736H100.64V74.84L97.7604 74.216V71.336L108.272 69.224V74.024H108.56C108.784 73.384 109.088 72.776 109.472 72.2C109.888 71.592 110.384 71.08 110.96 70.664C111.568 70.216 112.272 69.864 113.072 69.608C113.872 69.352 114.8 69.224 115.856 69.224C118.96 69.224 121.152 70.008 122.432 71.576C123.744 73.112 124.4 75.432 124.4 78.536V91.736H127.28V95H113.984V91.736H116.624V78.776C116.624 77.144 116.336 75.992 115.76 75.32C115.184 74.616 114.224 74.264 112.88 74.264C112.336 74.264 111.792 74.344 111.248 74.504C110.704 74.632 110.224 74.84 109.808 75.128C109.392 75.416 109.056 75.8 108.8 76.28C108.544 76.728 108.416 77.272 108.416 77.912V91.736H111.056V95H97.7604V91.736ZM137.059 66.728C135.651 66.728 134.547 66.36 133.747 65.624C132.947 64.856 132.547 63.816 132.547 62.504V62.264C132.547 60.952 132.947 59.928 133.747 59.192C134.547 58.424 135.651 58.04 137.059 58.04C138.499 58.04 139.619 58.424 140.419 59.192C141.219 59.928 141.619 60.952 141.619 62.264V62.504C141.619 63.816 141.219 64.856 140.419 65.624C139.619 66.36 138.499 66.728 137.059 66.728ZM130.339 91.736H133.219V74.84L130.339 74.216V71.336L140.995 69.224V91.736H143.875V95H130.339V91.736ZM146.885 91.736H149.765V74.84L146.885 74.216V71.336L157.397 69.224V74.024H157.685C157.909 73.384 158.213 72.776 158.597 72.2C159.013 71.592 159.509 71.08 160.085 70.664C160.693 70.216 161.397 69.864 162.197 69.608C162.997 69.352 163.925 69.224 164.981 69.224C168.085 69.224 170.277 70.008 171.557 71.576C172.869 73.112 173.525 75.432 173.525 78.536V91.736H176.405V95H163.109V91.736H165.749V78.776C165.749 77.144 165.461 75.992 164.885 75.32C164.309 74.616 163.349 74.264 162.005 74.264C161.461 74.264 160.917 74.344 160.373 74.504C159.829 74.632 159.349 74.84 158.933 75.128C158.517 75.416 158.181 75.8 157.925 76.28C157.669 76.728 157.541 77.272 157.541 77.912V91.736H160.181V95H146.885V91.736ZM191.464 105.176C189 105.176 186.952 105.048 185.32 104.792C183.688 104.536 182.392 104.168 181.432 103.688C180.472 103.24 179.784 102.68 179.368 102.008C178.984 101.336 178.792 100.568 178.792 99.704C178.792 98.488 179.32 97.496 180.376 96.728C181.432 95.992 182.76 95.512 184.36 95.288V95.096C183.176 94.84 182.216 94.312 181.48 93.512C180.776 92.68 180.424 91.608 180.424 90.296C180.424 88.792 180.936 87.624 181.96 86.792C182.984 85.96 184.216 85.4 185.656 85.112V84.92C183.992 84.28 182.696 83.352 181.768 82.136C180.872 80.92 180.424 79.4 180.424 77.576C180.424 76.232 180.68 75.048 181.192 74.024C181.736 72.968 182.488 72.088 183.448 71.384C184.408 70.68 185.56 70.152 186.904 69.8C188.248 69.416 189.752 69.224 191.416 69.224C192.504 69.224 193.576 69.32 194.632 69.512C195.688 69.672 196.696 69.976 197.656 70.424C198.008 66.84 199.656 65.048 202.6 65.048C203.592 65.048 204.408 65.32 205.048 65.864C205.688 66.408 206.008 67.192 206.008 68.216C206.008 69.144 205.704 69.896 205.096 70.472C204.52 71.048 203.704 71.336 202.648 71.336C202.072 71.336 201.528 71.24 201.016 71.048C200.536 70.856 200.12 70.552 199.768 70.136H199.576V71.48C200.504 72.216 201.208 73.08 201.688 74.072C202.2 75.032 202.456 76.184 202.456 77.528C202.456 78.872 202.184 80.072 201.64 81.128C201.128 82.152 200.392 83.016 199.432 83.72C198.472 84.424 197.32 84.968 195.976 85.352C194.632 85.704 193.128 85.88 191.464 85.88C190.152 85.88 188.856 85.752 187.576 85.496C187.128 85.784 186.824 86.12 186.664 86.504C186.504 86.888 186.424 87.256 186.424 87.608C186.424 88.248 186.664 88.744 187.144 89.096C187.656 89.448 188.472 89.624 189.592 89.624H195.256C197.08 89.624 198.616 89.8 199.864 90.152C201.144 90.472 202.168 90.936 202.936 91.544C203.736 92.152 204.312 92.888 204.664 93.752C205.048 94.616 205.24 95.56 205.24 96.584C205.24 99.304 204.104 101.416 201.832 102.92C199.592 104.424 196.136 105.176 191.464 105.176ZM191.416 82.424C193.752 82.424 194.92 80.968 194.92 78.056V77C194.92 75.496 194.632 74.408 194.056 73.736C193.512 73.032 192.648 72.68 191.464 72.68C189.128 72.68 187.96 74.136 187.96 77.048V78.104C187.96 79.608 188.232 80.712 188.776 81.416C189.352 82.088 190.232 82.424 191.416 82.424ZM185.032 99.032C185.032 100.024 185.432 100.76 186.232 101.24C187.064 101.72 188.408 101.96 190.264 101.96H193.48C197.064 101.96 198.856 100.92 198.856 98.84C198.856 97.784 198.488 97.096 197.752 96.776C197.048 96.456 196.024 96.296 194.68 96.296H186.328C185.88 96.648 185.544 97.016 185.32 97.4C185.128 97.816 185.032 98.36 185.032 99.032ZM332.715 95.576C330.699 95.576 328.891 95.256 327.291 94.616C325.723 93.944 324.395 93.016 323.307 91.832C322.251 90.648 321.435 89.256 320.859 87.656C320.315 86.056 320.043 84.296 320.043 82.376C320.043 80.328 320.331 78.488 320.907 76.856C321.483 75.224 322.299 73.848 323.355 72.728C324.443 71.608 325.739 70.744 327.243 70.136C328.747 69.528 330.427 69.224 332.283 69.224C334.107 69.224 335.755 69.496 337.227 70.04C338.731 70.584 339.995 71.368 341.019 72.392C342.043 73.384 342.827 74.6 343.371 76.04C343.947 77.448 344.235 79.048 344.235 80.84V82.52H328.251V84.536C328.251 86.616 328.811 88.184 329.931 89.24C331.051 90.264 332.539 90.776 334.395 90.776C336.123 90.776 337.515 90.392 338.571 89.624C339.659 88.824 340.427 87.88 340.875 86.792L343.659 88.424C343.371 89.192 342.939 90.008 342.363 90.872C341.819 91.704 341.099 92.472 340.203 93.176C339.339 93.88 338.283 94.456 337.035 94.904C335.787 95.352 334.347 95.576 332.715 95.576ZM328.251 79.4H336.267V78.728C336.267 76.456 335.899 74.872 335.163 73.976C334.459 73.08 333.515 72.632 332.331 72.632C331.115 72.632 330.123 73.08 329.355 73.976C328.619 74.84 328.251 76.424 328.251 78.728V79.4ZM356.083 95.576C353.267 95.576 351.235 94.952 349.987 93.704C348.739 92.424 348.115 90.632 348.115 88.328C348.115 85.864 349.059 84.008 350.947 82.76C352.867 81.512 355.667 80.888 359.347 80.888H362.755V78.2C362.755 76.248 362.371 74.792 361.603 73.832C360.867 72.84 359.587 72.344 357.763 72.344C357.091 72.344 356.515 72.392 356.035 72.488C355.587 72.552 355.187 72.664 354.835 72.824V73.112C355.155 73.272 355.459 73.56 355.747 73.976C356.067 74.36 356.227 74.904 356.227 75.608C356.227 76.6 355.907 77.432 355.267 78.104C354.627 78.776 353.683 79.112 352.435 79.112C351.411 79.112 350.563 78.776 349.891 78.104C349.251 77.4 348.931 76.52 348.931 75.464C348.931 74.696 349.155 73.944 349.603 73.208C350.083 72.44 350.771 71.768 351.667 71.192C352.595 70.584 353.747 70.104 355.123 69.752C356.499 69.4 358.083 69.224 359.875 69.224C363.555 69.224 366.243 69.992 367.939 71.528C369.667 73.032 370.531 75.144 370.531 77.864V91.736H373.411V94.568C372.835 94.888 372.083 95.128 371.155 95.288C370.227 95.48 369.283 95.576 368.323 95.576C366.499 95.576 365.219 95.16 364.483 94.328C363.747 93.496 363.379 92.472 363.379 91.256V91.208H363.187C362.931 91.72 362.627 92.248 362.275 92.792C361.955 93.304 361.523 93.768 360.979 94.184C360.435 94.6 359.763 94.936 358.963 95.192C358.163 95.448 357.203 95.576 356.083 95.576ZM359.011 91.112C360.163 91.112 361.075 90.856 361.747 90.344C362.419 89.832 362.755 88.904 362.755 87.56V83.816H360.163C358.723 83.816 357.619 84.136 356.851 84.776C356.115 85.416 355.747 86.312 355.747 87.464V88.184C355.747 89.208 356.051 89.96 356.659 90.44C357.267 90.888 358.051 91.112 359.011 91.112ZM376.479 91.736H379.359V74.84L376.479 74.216V71.336L386.991 69.224V73.928H387.183C387.631 72.584 388.367 71.464 389.391 70.568C390.415 69.672 391.743 69.224 393.375 69.224C395.007 69.224 396.271 69.656 397.167 70.52C398.063 71.384 398.511 72.552 398.511 74.024C398.511 75.368 398.159 76.408 397.455 77.144C396.783 77.88 395.791 78.248 394.479 78.248C393.263 78.248 392.335 77.944 391.695 77.336C391.087 76.696 390.783 75.928 390.783 75.032C390.783 74.68 390.863 74.36 391.023 74.072C391.183 73.752 391.375 73.544 391.599 73.448L391.503 73.16C391.439 73.128 391.327 73.112 391.167 73.112C390.687 73.112 390.207 73.256 389.727 73.544C389.247 73.832 388.815 74.2 388.431 74.648C388.047 75.096 387.727 75.592 387.471 76.136C387.247 76.648 387.135 77.16 387.135 77.672V91.736H390.975V95H376.479V91.736ZM400.854 91.736H403.734V74.84L400.854 74.216V71.336L411.366 69.224V74.024H411.654C411.878 73.384 412.182 72.776 412.566 72.2C412.982 71.592 413.478 71.08 414.054 70.664C414.662 70.216 415.366 69.864 416.166 69.608C416.966 69.352 417.894 69.224 418.95 69.224C422.054 69.224 424.246 70.008 425.526 71.576C426.838 73.112 427.494 75.432 427.494 78.536V91.736H430.374V95H417.078V91.736H419.718V78.776C419.718 77.144 419.43 75.992 418.854 75.32C418.278 74.616 417.318 74.264 415.974 74.264C415.43 74.264 414.886 74.344 414.342 74.504C413.798 74.632 413.318 74.84 412.902 75.128C412.486 75.416 412.15 75.8 411.894 76.28C411.638 76.728 411.51 77.272 411.51 77.912V91.736H414.15V95H400.854V91.736ZM440.152 66.728C438.744 66.728 437.64 66.36 436.84 65.624C436.04 64.856 435.64 63.816 435.64 62.504V62.264C435.64 60.952 436.04 59.928 436.84 59.192C437.64 58.424 438.744 58.04 440.152 58.04C441.592 58.04 442.712 58.424 443.512 59.192C444.312 59.928 444.712 60.952 444.712 62.264V62.504C444.712 63.816 444.312 64.856 443.512 65.624C442.712 66.36 441.592 66.728 440.152 66.728ZM433.432 91.736H436.312V74.84L433.432 74.216V71.336L444.088 69.224V91.736H446.968V95H433.432V91.736ZM449.979 91.736H452.859V74.84L449.979 74.216V71.336L460.491 69.224V74.024H460.779C461.003 73.384 461.307 72.776 461.691 72.2C462.107 71.592 462.603 71.08 463.179 70.664C463.787 70.216 464.491 69.864 465.291 69.608C466.091 69.352 467.019 69.224 468.075 69.224C471.179 69.224 473.371 70.008 474.651 71.576C475.963 73.112 476.619 75.432 476.619 78.536V91.736H479.499V95H466.203V91.736H468.843V78.776C468.843 77.144 468.555 75.992 467.979 75.32C467.403 74.616 466.443 74.264 465.099 74.264C464.555 74.264 464.011 74.344 463.467 74.504C462.923 74.632 462.443 74.84 462.027 75.128C461.611 75.416 461.275 75.8 461.019 76.28C460.763 76.728 460.635 77.272 460.635 77.912V91.736H463.275V95H449.979V91.736ZM494.557 105.176C492.093 105.176 490.045 105.048 488.413 104.792C486.781 104.536 485.485 104.168 484.525 103.688C483.565 103.24 482.877 102.68 482.461 102.008C482.077 101.336 481.885 100.568 481.885 99.704C481.885 98.488 482.413 97.496 483.469 96.728C484.525 95.992 485.853 95.512 487.453 95.288V95.096C486.269 94.84 485.309 94.312 484.573 93.512C483.869 92.68 483.517 91.608 483.517 90.296C483.517 88.792 484.029 87.624 485.053 86.792C486.077 85.96 487.309 85.4 488.749 85.112V84.92C487.085 84.28 485.789 83.352 484.861 82.136C483.965 80.92 483.517 79.4 483.517 77.576C483.517 76.232 483.773 75.048 484.285 74.024C484.829 72.968 485.581 72.088 486.541 71.384C487.501 70.68 488.653 70.152 489.997 69.8C491.341 69.416 492.845 69.224 494.509 69.224C495.597 69.224 496.669 69.32 497.725 69.512C498.781 69.672 499.789 69.976 500.749 70.424C501.101 66.84 502.749 65.048 505.693 65.048C506.685 65.048 507.501 65.32 508.141 65.864C508.781 66.408 509.101 67.192 509.101 68.216C509.101 69.144 508.797 69.896 508.189 70.472C507.613 71.048 506.797 71.336 505.741 71.336C505.165 71.336 504.621 71.24 504.109 71.048C503.629 70.856 503.213 70.552 502.861 70.136H502.669V71.48C503.597 72.216 504.301 73.08 504.781 74.072C505.293 75.032 505.549 76.184 505.549 77.528C505.549 78.872 505.277 80.072 504.733 81.128C504.221 82.152 503.485 83.016 502.525 83.72C501.565 84.424 500.413 84.968 499.069 85.352C497.725 85.704 496.221 85.88 494.557 85.88C493.245 85.88 491.949 85.752 490.669 85.496C490.221 85.784 489.917 86.12 489.757 86.504C489.597 86.888 489.517 87.256 489.517 87.608C489.517 88.248 489.757 88.744 490.237 89.096C490.749 89.448 491.565 89.624 492.685 89.624H498.349C500.173 89.624 501.709 89.8 502.957 90.152C504.237 90.472 505.261 90.936 506.029 91.544C506.829 92.152 507.405 92.888 507.757 93.752C508.141 94.616 508.333 95.56 508.333 96.584C508.333 99.304 507.197 101.416 504.925 102.92C502.685 104.424 499.229 105.176 494.557 105.176ZM494.509 82.424C496.845 82.424 498.013 80.968 498.013 78.056V77C498.013 75.496 497.725 74.408 497.149 73.736C496.605 73.032 495.741 72.68 494.557 72.68C492.221 72.68 491.053 74.136 491.053 77.048V78.104C491.053 79.608 491.325 80.712 491.869 81.416C492.445 82.088 493.325 82.424 494.509 82.424ZM488.125 99.032C488.125 100.024 488.525 100.76 489.325 101.24C490.157 101.72 491.501 101.96 493.357 101.96H496.573C500.157 101.96 501.949 100.92 501.949 98.84C501.949 97.784 501.581 97.096 500.845 96.776C500.141 96.456 499.117 96.296 497.773 96.296H489.421C488.973 96.648 488.637 97.016 488.413 97.4C488.221 97.816 488.125 98.36 488.125 99.032Z" fill="#002350"/>
</svg>
