<svg width="17" height="16" viewBox="0 0 17 16" fill="none" xmlns="http://www.w3.org/2000/svg">
<path d="M11.9642 1L10.2975 2.66667H2.16667V14.3333H13.8333V6.2025L15.5 4.53583V15.1667C15.5 15.3877 15.4122 15.5996 15.2559 15.7559C15.0996 15.9122 14.8877 16 14.6667 16H1.33333C1.11232 16 0.900358 15.9122 0.744078 15.7559C0.587797 15.5996 0.5 15.3877 0.5 15.1667V1.83333C0.5 1.61232 0.587797 1.40036 0.744078 1.24408C0.900358 1.0878 1.11232 1 1.33333 1H11.9642ZM15.0708 0.25L16.25 1.43L8.59 9.09L7.41333 9.0925L7.41167 7.91167L15.0708 0.25Z" fill="#3CC878"/>
</svg>
