<svg width="19" height="15" viewBox="0 0 19 15" fill="none" xmlns="http://www.w3.org/2000/svg">
<path d="M6.05427 14.8748C12.847 14.8748 16.5629 9.24643 16.5629 4.37405C16.5629 4.21655 16.5629 4.0568 16.5561 3.8993C17.2796 3.3756 17.904 2.72722 18.4 1.98455C17.7243 2.28251 17.0081 2.47889 16.2749 2.5673C17.0472 2.10565 17.6257 1.37927 17.9028 0.523178C17.1771 0.953068 16.3829 1.25485 15.5549 1.4153C14.9982 0.822455 14.2616 0.429711 13.4591 0.297905C12.6566 0.1661 11.8331 0.30259 11.116 0.686233C10.399 1.06988 9.82843 1.67926 9.49278 2.42C9.15713 3.16073 9.0751 3.99148 9.2594 4.78355C7.79098 4.70992 6.35444 4.32846 5.04295 3.66389C3.73145 2.99932 2.57429 2.0665 1.64652 0.925928C1.17553 1.7394 1.03179 2.70163 1.2445 3.61723C1.45721 4.53283 2.01041 5.33315 2.79177 5.85568C2.20626 5.83579 1.63361 5.67856 1.12002 5.39668V5.4473C1.12103 6.29947 1.41625 7.12515 1.95576 7.78478C2.49527 8.44442 3.24599 8.89754 4.08102 9.06756C3.76407 9.15487 3.43666 9.1984 3.1079 9.19693C2.87613 9.19763 2.64483 9.17616 2.41715 9.1328C2.65316 9.86637 3.11271 10.5077 3.73143 10.9671C4.35015 11.4264 5.09705 11.6808 5.86752 11.6944C4.55865 12.7225 2.94185 13.28 1.27752 13.2773C0.98426 13.2785 0.6912 13.2616 0.400024 13.2267C2.08923 14.3036 4.05098 14.8754 6.05427 14.8748Z" fill="#F2F4F7"/>
</svg>
