<svg width="42" height="42" viewBox="0 0 42 42" fill="none" xmlns="http://www.w3.org/2000/svg">
<rect width="42" height="42" rx="21" fill="#3C78F0" fill-opacity="0.2"/>
<path d="M31.46 14.5C30.69 14.85 29.86 15.08 29 15.19C29.88 14.66 30.56 13.82 30.88 12.81C30.05 13.31 29.13 13.66 28.16 13.86C27.37 13 26.26 12.5 25 12.5C22.65 12.5 20.73 14.42 20.73 16.79C20.73 17.13 20.77 17.46 20.84 17.77C17.28 17.59 14.11 15.88 12 13.29C11.63 13.92 11.42 14.66 11.42 15.44C11.42 16.93 12.17 18.25 13.33 19C12.62 19 11.96 18.8 11.38 18.5V18.53C11.38 20.61 12.86 22.35 14.82 22.74C14.1908 22.9122 13.5301 22.9362 12.89 22.81C13.1616 23.6625 13.6936 24.4084 14.4111 24.9429C15.1285 25.4775 15.9955 25.7737 16.89 25.79C15.3737 26.9904 13.494 27.6393 11.56 27.63C11.22 27.63 10.88 27.61 10.54 27.57C12.44 28.79 14.7 29.5 17.12 29.5C25 29.5 29.33 22.96 29.33 17.29C29.33 17.1 29.33 16.92 29.32 16.73C30.16 16.13 30.88 15.37 31.46 14.5Z" fill="#3C78F0"/>
</svg>
