<svg width="18" height="18" viewBox="0 0 18 16" fill="none" xmlns="http://www.w3.org/2000/svg">
<path d="M9.00116 1.77415C10.9587 0.0166499 13.9837 0.0749834 15.8695 1.96415C17.7545 3.85415 17.8195 6.86415 16.0662 8.82748L8.9995 15.9041L1.9345 8.82748C0.181164 6.86415 0.246997 3.84915 2.13116 1.96415C4.01866 0.0774834 7.03783 0.0141499 9.00116 1.77415ZM14.6895 3.14165C13.4395 1.88998 11.4228 1.83915 10.1145 3.01415L9.002 4.01248L7.88866 3.01498C6.57616 1.83832 4.56366 1.88998 3.31033 3.14332C2.06866 4.38498 2.00616 6.37248 3.15033 7.68582L9.00033 13.545L14.8503 7.68665C15.9953 6.37248 15.9328 4.38748 14.6895 3.14165Z" fill="#3C78F0"/>
</svg>
