<svg width="56" height="56" viewBox="0 0 56 56" fill="none" xmlns="http://www.w3.org/2000/svg">
<rect width="56" height="56" rx="8" fill="#3CC878" fill-opacity="0.2"/>
<path d="M23 16.3333C23 15.4128 22.2538 14.6667 21.3333 14.6667H18C17.0795 14.6667 16.3333 15.4128 16.3333 16.3333V39.6667C16.3333 40.5871 17.0795 41.3333 18 41.3333H21.3333C22.2538 41.3333 23 40.5871 23 39.6667M23 16.3333V39.6667M23 16.3333C23 15.4128 23.7462 14.6667 24.6666 14.6667H28C28.9205 14.6667 29.6666 15.4128 29.6666 16.3333V39.6667C29.6666 40.5871 28.9205 41.3333 28 41.3333H24.6666C23.7462 41.3333 23 40.5871 23 39.6667M16.3333 21.3333H23M23 34.6667H29.6666M31.3333 23L38 21.3333M34.6666 34.6667L41.205 33.0333M31.005 15.6L34.645 14.7167C35.5816 14.4917 36.5333 15.0333 36.7816 15.9367L42.94 38.3C43.0486 38.7094 43.0005 39.1446 42.8051 39.5204C42.6096 39.8962 42.2809 40.1855 41.8833 40.3317L41.6616 40.4L38.0216 41.2833C37.085 41.5083 36.1333 40.9667 35.885 40.0633L29.7266 17.7C29.618 17.2906 29.6661 16.8553 29.8616 16.4795C30.057 16.1037 30.3857 15.8145 30.7833 15.6683L31.005 15.6Z" stroke="#3CC878" stroke-width="2.5" stroke-linecap="round" stroke-linejoin="round"/>
</svg>
