<svg width="27" height="18" viewBox="0 0 27 18" fill="none" xmlns="http://www.w3.org/2000/svg">
<path d="M26.4 6.25198C26.4594 4.53437 26.0837 2.8296 25.308 1.29598C24.7817 0.666699 24.0513 0.242033 23.244 0.0959808C19.905 -0.206989 16.5523 -0.331166 13.2 -0.276019C9.85999 -0.333669 6.51927 -0.213499 3.19202 0.0839811C2.5342 0.203641 1.92544 0.512191 1.44002 0.971981C0.36002 1.96798 0.24002 3.67198 0.12002 5.11198C-0.0540854 7.70106 -0.0540854 10.2989 0.12002 12.888C0.154736 13.6985 0.275413 14.503 0.48002 15.288C0.62471 15.8941 0.917447 16.4548 1.33202 16.92C1.82074 17.4041 2.44368 17.7302 3.12002 17.856C5.70712 18.1753 8.31388 18.3077 10.92 18.252C15.12 18.312 18.804 18.252 23.16 17.916C23.853 17.798 24.4934 17.4714 24.996 16.98C25.332 16.6439 25.5829 16.2325 25.728 15.78C26.1572 14.4631 26.368 13.0849 26.352 11.7C26.4 11.028 26.4 6.97198 26.4 6.25198ZM10.488 12.42V4.99198L17.592 8.72398C15.6 9.82798 12.972 11.076 10.488 12.42Z" fill="#F2F4F7"/>
</svg>
