<svg width="21" height="19" viewBox="0 0 21 19" fill="none" xmlns="http://www.w3.org/2000/svg">
<path d="M2.5 13H18.5V2H2.5V13ZM11.5 15V17H15.5V19H5.5V17H9.5V15H1.492C1.36069 14.9992 1.23082 14.9725 1.10984 14.9215C0.988861 14.8704 0.879149 14.7959 0.786994 14.7024C0.694838 14.6088 0.622051 14.498 0.572803 14.3763C0.523556 14.2546 0.498816 14.1243 0.500003 13.993V1.007C0.500003 0.451 0.955003 0 1.492 0H19.508C20.056 0 20.5 0.449 20.5 1.007V13.993C20.5 14.549 20.045 15 19.508 15H11.5Z" fill="#FF783C"/>
</svg>
